<?xml version="1.0" standalone="no"?>
<!DOCTYPE svg PUBLIC "-//W3C//DTD SVG 1.1//EN" "http://www.w3.org/Graphics/SVG/1.1/DTD/svg11.dtd" >
<svg xmlns="http://www.w3.org/2000/svg" xmlns:xlink="http://www.w3.org/1999/xlink" version="1.1">
<metadata>
Created by FontForge 20170731 at Thu Mar 30 13:44:27 2023
 By Aleksey,,,
Copyright (c) 2020 by CyberFei. All rights reserved.
</metadata>
<defs>
<font id="D-DIN-PRO-ExtraBold" horiz-adv-x="1228" >
  <font-face 
    font-family="D-DIN-PRO ExtraBold"
    font-weight="800"
    font-stretch="normal"
    units-per-em="2048"
    panose-1="2 11 8 4 3 2 2 3 2 4"
    ascent="1702"
    descent="-346"
    x-height="1075"
    cap-height="1423"
    bbox="-350 -354 2494 1849"
    underline-thickness="102"
    underline-position="-307"
    unicode-range="U+0020-FB02"
  />
<missing-glyph 
d="M1030 1423v-1433h-833v1433h833zM940 1333h-653v-1253h653v1253z" />
    <glyph glyph-name="fi" unicode="fi" horiz-adv-x="1177" 
d="M471 1208q-22 -22 -22 -69v-64h190v-198h-190v-887h-273v887h-113v198h113v53q0 141 80 218q77 77 225 77h158v-192h-94q-51 0 -74 -23zM1069 1423v-223h-278v223h278zM1067 1075v-1085h-272v1085h272z" />
    <glyph glyph-name="fl" unicode="fl" horiz-adv-x="1271" 
d="M471 1208q-22 -22 -22 -69v-64h190v-198h-190v-887h-273v887h-113v198h113v53q0 141 80 218q77 77 225 77h158v-192h-94q-51 0 -74 -23zM872 76q-88 88 -88 248v1099h275v-1083q0 -63 20 -86q22 -25 70 -25h96v-239h-127q-157 0 -246 86z" />
    <glyph glyph-name=".notdef" 
d="M1030 1423v-1433h-833v1433h833zM940 1333h-653v-1253h653v1253z" />
    <glyph glyph-name=".null" horiz-adv-x="0" 
 />
    <glyph glyph-name="nonmarkingreturn" horiz-adv-x="468" 
 />
    <glyph glyph-name="space" unicode=" " horiz-adv-x="468" 
 />
    <glyph glyph-name="exclam" unicode="!" horiz-adv-x="509" 
d="M410 1423l-50 -962h-210l-50 962h310zM399 276v-286h-288v286h288z" />
    <glyph glyph-name="quotedbl" unicode="&#x22;" horiz-adv-x="780" 
d="M328 1423v-630h-260v630h260zM713 1423v-630h-258v630h258z" />
    <glyph glyph-name="numbersign" unicode="#" horiz-adv-x="1103" 
d="M866 616h160v-208h-188l-56 -418h-233l55 418h-196l-56 -418h-231l55 418h-149v208h178l26 205h-153v209h182l51 393h232l-51 -393h196l51 393h232l-51 -393h157v-209h-186zM463 821l-27 -205h197l26 205h-196z" />
    <glyph glyph-name="dollar" unicode="$" horiz-adv-x="1028" 
d="M850 190q-82 -98 -232 -129v-194h-231v190q-151 24 -240 127q-92 112 -98 291h254q12 -106 59 -147q45 -39 138 -39q166 0 166 149q0 70 -33 103q-29 36 -107 49l-100 18q-175 30 -260 121q-86 89 -86 248q0 155 84 256q83 99 223 129v164h231v-166q129 -29 209 -125
q85 -105 91 -264h-263q-6 92 -45 131q-40 37 -116 37q-71 0 -111 -37q-37 -37 -37 -107q0 -64 35 -94q38 -36 123 -51l117 -23q160 -31 235 -120q80 -89 80 -248q0 -169 -86 -269z" />
    <glyph glyph-name="percent" unicode="%" horiz-adv-x="1851" 
d="M141 610q-69 78 -69 236v291q0 147 73 223t213 76q145 0 215 -76q70 -73 70 -223v-291q0 -157 -70 -236q-71 -80 -215 -80q-146 0 -217 80zM1438 1434l-801 -1444h-223l798 1444h226zM401 754q11 29 11 102v254q0 69 -11 102q-10 23 -43 23t-43 -23q-12 -27 -12 -102
v-254q0 -70 10 -100q10 -23 45 -23q37 0 43 21zM1276 57q-70 79 -70 236v291q0 146 74 223q73 76 213 76q145 0 215 -76q70 -73 70 -223v-291q0 -157 -70 -236q-71 -80 -215 -80q-146 0 -217 80zM1536 201q10 27 10 102v254q0 72 -10 102q-10 23 -43 23t-43 -23
q-12 -27 -12 -102v-254q0 -70 10 -100q10 -23 45 -23q37 0 43 21z" />
    <glyph glyph-name="ampersand" unicode="&#x26;" horiz-adv-x="1224" 
d="M1141 229v-239h-109q-73 0 -121 28q-40 23 -100 103q-78 -81 -154 -117q-84 -37 -190 -37q-181 0 -285 107q-100 106 -100 276q0 118 59 221q49 91 189 211q-68 95 -113 179q-33 70 -33 147q0 97 47 174q48 80 127 121q79 43 183 43q107 0 184 -45q80 -42 125 -121
q45 -74 45 -170q0 -100 -53 -182q-58 -88 -174 -187l163 -221l140 174l176 -153l-172 -215l35 -47q41 -50 75 -50h56zM471 1200q-29 -29 -29 -82q0 -32 17 -74q12 -29 67 -108q70 61 90 96q25 42 25 86q0 51 -29 80q-28 31 -69 31q-46 0 -72 -29zM575 231q36 19 95 84
l-197 269q-73 -66 -98 -113q-31 -51 -31 -102q0 -77 39 -119q37 -43 104 -43q47 0 88 24z" />
    <glyph glyph-name="quotesingle" unicode="'" horiz-adv-x="395" 
d="M328 1423v-630h-260v630h260z" />
    <glyph glyph-name="parenleft" unicode="(" horiz-adv-x="634" 
d="M82 672q0 467 270 854h207q-106 -208 -156 -424q-49 -212 -49 -430q0 -215 52 -430q52 -227 153 -424h-209q-268 397 -268 854z" />
    <glyph glyph-name="parenright" unicode=")" horiz-adv-x="634" 
d="M229 242q52 215 52 430q0 213 -50 430q-51 220 -155 424h207q270 -387 270 -854q0 -457 -268 -854h-209q101 197 153 424z" />
    <glyph glyph-name="asterisk" unicode="*" horiz-adv-x="772" 
d="M152 889l-74 129l158 90l-158 90l74 129l153 -86v182h162v-184l154 88l71 -129l-157 -90l159 -90l-76 -129l-151 86v-189h-162v191z" />
    <glyph glyph-name="plus" unicode="+" horiz-adv-x="1083" 
d="M88 438v254h328v328h254v-328h325v-254h-325v-327h-254v327h-328z" />
    <glyph glyph-name="comma" unicode="," horiz-adv-x="395" 
d="M328 291v-424l-260 -221v645h260z" />
    <glyph glyph-name="hyphen" unicode="-" horiz-adv-x="747" 
d="M666 836v-256h-584v256h584z" />
    <glyph glyph-name="period" unicode="." horiz-adv-x="440" 
d="M373 301v-311h-305v311h305z" />
    <glyph glyph-name="slash" unicode="/" horiz-adv-x="829" 
d="M752 1434l-441 -1465h-233l438 1465h236z" />
    <glyph glyph-name="zero" unicode="0" horiz-adv-x="1048" 
d="M199 92q-107 125 -107 373v500q0 235 111 358t321 123q218 0 326 -123q106 -118 106 -358v-500q0 -247 -106 -371q-106 -127 -326 -127q-218 0 -325 125zM637 279q31 60 31 208v439q0 149 -31 209q-27 55 -113 55q-85 0 -112 -55q-29 -63 -29 -209v-439q0 -148 31 -208
q27 -58 110 -58q86 0 113 58z" />
    <glyph glyph-name="one" unicode="1" horiz-adv-x="712" 
d="M63 924v317l244 182h283v-1433h-289v1106z" />
    <glyph glyph-name="two" unicode="2" horiz-adv-x="1009" 
d="M559 827q76 105 76 193v29q0 67 -37 110q-39 39 -100 39q-64 0 -99 -41q-37 -43 -37 -119v-43h-280v60q0 111 51 202q56 91 150 138q92 51 225 51q126 0 221 -53q94 -52 148 -140q51 -91 51 -196v-35q0 -98 -33 -174q-35 -80 -98 -162l-340 -440h471v-256h-840v227z" />
    <glyph glyph-name="three" unicode="3" horiz-adv-x="1032" 
d="M195 66q-113 98 -113 276v53h270v-41q0 -68 39 -104q41 -35 115 -35q70 0 112 45q41 50 41 127v37q0 90 -45 135t-129 45h-82v248h80q75 0 113 41q41 41 41 119v30q0 75 -37 115q-38 41 -102 41q-69 0 -103 -37q-37 -37 -37 -102v-45h-266v45q0 182 111 284
q112 103 305 103q191 0 299 -105q111 -105 111 -278v-31q0 -97 -46 -170q-37 -66 -108 -110q81 -40 127 -119q49 -82 49 -207v-39q0 -129 -55 -223q-54 -95 -154 -146q-96 -51 -221 -51q-201 0 -315 99z" />
    <glyph glyph-name="four" unicode="4" horiz-adv-x="1067" 
d="M891 215v-225h-289v225h-541v248l408 960h291l-404 -952h246v332h289v-332h115v-256h-115z" />
    <glyph glyph-name="five" unicode="5" horiz-adv-x="1017" 
d="M203 61q-111 95 -111 265v41h266v-23q0 -60 37 -94q38 -35 107 -35q70 0 108 47q35 47 35 139v107q0 94 -35 141q-36 45 -110 45q-98 0 -140 -96h-247v825h784v-249h-532v-289q79 55 190 55q181 0 276 -109t95 -309v-133q0 -198 -113 -311q-114 -111 -311 -111
q-185 0 -299 94z" />
    <glyph glyph-name="six" unicode="6" horiz-adv-x="1056" 
d="M201 80q-119 116 -119 315v64q0 85 24 162q24 79 70 167l326 635h305l-289 -563q41 12 82 12q173 0 272 -108q103 -109 103 -295v-66q0 -204 -123 -321q-124 -115 -324 -115q-208 0 -327 113zM643 260q43 49 43 131v64q0 83 -43 129q-42 45 -115 45q-72 0 -114 -45
q-41 -47 -41 -127v-68q0 -79 41 -129q42 -45 114 -45q73 0 115 45z" />
    <glyph glyph-name="seven" unicode="7" horiz-adv-x="935" 
d="M885 1178l-434 -1188h-291l438 1179h-547v254h834v-245z" />
    <glyph glyph-name="eight" unicode="8" horiz-adv-x="1075" 
d="M309 18q-99 51 -159 148q-58 103 -58 223v47q0 99 47 182q40 76 115 123q-57 42 -94 105q-41 74 -41 168v37q0 110 51 196q54 94 147 146q92 53 222 53q128 0 223 -53q97 -57 145 -146q51 -86 51 -196v-37q0 -96 -43 -166q-38 -68 -94 -107q73 -47 117 -125
q45 -80 45 -178v-47q0 -123 -57 -225q-60 -96 -160 -148q-99 -51 -229 -51q-132 0 -228 51zM641 901q39 42 39 111v39q0 64 -39 106q-41 41 -102 41q-62 0 -103 -41q-39 -42 -39 -106v-39q0 -71 39 -113q38 -41 103 -41t102 43zM659 262q46 49 46 131v49q0 78 -46 127
q-47 47 -120 47q-75 0 -119 -47q-47 -47 -47 -127v-49q0 -81 45 -129q43 -49 121 -49q73 0 120 47z" />
    <glyph glyph-name="nine" unicode="9" horiz-adv-x="1056" 
d="M539 553q-41 -12 -82 -12q-174 0 -273 108q-102 108 -102 295v66q0 204 123 321q124 115 323 115q209 0 328 -113q119 -116 119 -315v-64q0 -78 -25 -161q-26 -86 -69 -168l-326 -635h-305zM643 829q41 47 41 127v68q0 79 -41 129q-42 45 -115 45q-72 0 -114 -45
q-43 -49 -43 -131v-64q0 -83 43 -129q42 -45 114 -45q73 0 115 45z" />
    <glyph glyph-name="colon" unicode=":" horiz-adv-x="440" 
d="M373 993v-311h-305v311h305zM373 301v-311h-305v311h305z" />
    <glyph glyph-name="semicolon" unicode=";" horiz-adv-x="440" 
d="M373 993v-311h-305v311h305zM369 291v-424l-260 -221v645h260z" />
    <glyph glyph-name="less" unicode="&#x3c;" horiz-adv-x="1083" 
d="M88 674l905 354v-256l-551 -211l551 -209v-258l-905 357v223z" />
    <glyph glyph-name="equal" unicode="=" horiz-adv-x="1083" 
d="M993 905v-252h-905v252h905zM993 477v-252h-905v252h905z" />
    <glyph glyph-name="greater" unicode="&#x3e;" horiz-adv-x="1083" 
d="M639 561l-551 211v256l905 -354v-223l-905 -357v258z" />
    <glyph glyph-name="question" unicode="?" horiz-adv-x="923" 
d="M311 500q0 81 17 131q15 50 69 119l113 145q38 48 55 88q17 35 17 78q0 60 -33 96q-35 35 -103 35q-70 0 -100 -37q-33 -39 -33 -125h-268q0 202 109 311q109 103 301 103q124 0 215 -49q95 -50 143 -133q51 -83 51 -193q0 -75 -24 -139q-27 -67 -82 -137l-119 -160
q-25 -32 -43 -72q-10 -30 -10 -80v-96h-275v115zM592 268v-278h-289v278h289z" />
    <glyph glyph-name="at" unicode="@" horiz-adv-x="1787" 
d="M1602 1065q104 -177 104 -408v-143q0 -201 -100 -307q-104 -107 -256 -107q-95 0 -162 37q-57 28 -96 86q-70 -123 -263 -123q-319 0 -319 381v181q0 177 74 280q74 102 231 102q77 0 135 -30q44 -18 68 -53v61h244v-594q0 -63 24 -90q26 -29 66 -29q52 0 78 45
q26 48 26 158v143q0 172 -67 297q-69 128 -193 195q-125 67 -301 67q-263 0 -414 -151q-149 -149 -149 -412v-145q0 -173 67 -301q70 -130 193 -199q126 -69 303 -69q124 0 219 24q103 28 209 84l100 -192q-127 -76 -254 -109q-121 -33 -274 -33q-239 0 -422 101
q-182 96 -289 278q-102 178 -102 414v143q0 235 102 414q107 182 289 278q183 101 422 101q233 0 418 -99q186 -98 289 -276zM1014 487v172q0 172 -125 172q-69 0 -96 -43q-33 -44 -33 -126v-168q0 -88 31 -136q29 -45 98 -45q125 0 125 174z" />
    <glyph glyph-name="A" unicode="A" horiz-adv-x="1241" 
d="M737 1423l510 -1433h-307l-86 274h-469l-86 -274h-305l508 1433h235zM463 508h313l-158 498z" />
    <glyph glyph-name="B" unicode="B" horiz-adv-x="1224" 
d="M1081 608q52 -90 52 -202q0 -198 -119 -308q-117 -108 -326 -108h-577v1433h555q210 0 329 -104q119 -107 119 -299q0 -99 -49 -178q-42 -70 -117 -115q85 -43 133 -119zM399 846h246q86 0 133 41q45 42 45 117q0 80 -45 122q-46 43 -133 43h-246v-323zM799 291
q45 48 45 133q0 78 -45 123q-42 45 -137 45h-263v-348h263q90 0 137 47z" />
    <glyph glyph-name="C" unicode="C" 
d="M92 870q0 286 133 430t396 144q234 0 374 -125q142 -127 142 -354v-25h-289v23q0 103 -60 163q-59 62 -170 62q-124 0 -178 -76q-57 -75 -57 -256v-305q0 -169 57 -244q59 -74 183 -74q108 0 168 60q57 57 57 160v26h285v-24q0 -232 -140 -357q-134 -125 -377 -125
q-524 0 -524 574v323z" />
    <glyph glyph-name="D" unicode="D" 
d="M618 1423q240 0 379 -133q140 -134 140 -438v-289q0 -303 -144 -438q-141 -135 -383 -135h-499v1433h507zM616 244q115 0 175 75q57 75 57 246v273q0 179 -57 256q-57 75 -175 75h-217v-925h217z" />
    <glyph glyph-name="E" unicode="E" horiz-adv-x="1089" 
d="M399 840h537v-254h-537v-342h629v-254h-917v1433h917v-254h-629v-329z" />
    <glyph glyph-name="F" unicode="F" horiz-adv-x="1079" 
d="M399 827h539v-254h-539v-583h-288v1433h917v-254h-629v-342z" />
    <glyph glyph-name="G" unicode="G" 
d="M92 870q0 286 133 430t396 144q237 0 374 -125q142 -127 142 -344v-25h-289v25q0 94 -60 151q-59 62 -170 62q-124 0 -178 -76q-57 -75 -57 -256v-305q0 -170 59 -244q62 -74 187 -74q118 0 172 60q53 62 53 186v58h-250v241h533v-252q0 -553 -521 -553q-524 0 -524 574
v323z" />
    <glyph glyph-name="H" unicode="H" horiz-adv-x="1247" 
d="M1137 -10h-289v598h-449v-598h-288v1433h288v-581h449v581h289v-1433z" />
    <glyph glyph-name="I" unicode="I" horiz-adv-x="534" 
d="M412 1423v-1433h-289v1433h289z" />
    <glyph glyph-name="J" unicode="J" horiz-adv-x="677" 
d="M160 246q59 0 82 26q22 25 22 97v1054h291v-1099q0 -160 -88 -248q-89 -86 -246 -86h-182v256h121z" />
    <glyph glyph-name="K" unicode="K" horiz-adv-x="1249" 
d="M760 846l495 -856h-335l-347 620l-174 -219v-401h-288v1433h288v-639l473 639h349z" />
    <glyph glyph-name="L" unicode="L" horiz-adv-x="1056" 
d="M399 1423v-1179h619v-254h-907v1433h288z" />
    <glyph glyph-name="M" unicode="M" horiz-adv-x="1499" 
d="M1104 1423h285v-1433h-289v801l-252 -529h-193l-256 535v-807h-288v1433h284l357 -766z" />
    <glyph glyph-name="N" unicode="N" horiz-adv-x="1298" 
d="M899 1423h289v-1433h-285l-504 856v-856h-288v1433h284l504 -858v858z" />
    <glyph glyph-name="O" unicode="O" 
d="M92 870q0 574 524 574q241 0 379 -135q142 -136 142 -439v-323q0 -303 -144 -438q-142 -136 -385 -136q-257 0 -386.5 144t-129.5 430v323zM791 309q57 72 57 242v305q0 179 -57 256q-57 76 -175 76q-122 0 -178 -74q-55 -76 -55 -258v-305q0 -170 55 -246
q57 -72 178 -72q120 0 175 76z" />
    <glyph glyph-name="P" unicode="P" horiz-adv-x="1161" 
d="M995 1303q127 -121 127 -334q0 -204 -127 -322q-127 -121 -346 -121h-250v-536h-288v1433h538q220 0 346 -120zM782 831q52 49 52 138q0 97 -52 149q-51 51 -145 51h-238v-387h238q90 0 145 49z" />
    <glyph glyph-name="Q" unicode="Q" 
d="M1098 -207l-224 -123l-167 310q-58 -7 -99 -7q-257 0 -386.5 144t-129.5 430v323q0 574 524 574q241 0 379 -135q142 -136 142 -439v-323q0 -338 -189 -477zM438 305q57 -72 178 -72q120 0 175 76q57 72 57 242v305q0 179 -57 256q-57 76 -175 76q-122 0 -178 -74
q-55 -76 -55 -258v-305q0 -170 55 -246z" />
    <glyph glyph-name="R" unicode="R" 
d="M399 563v-573h-288v1433h546q214 0 336 -116q127 -115 127 -316q0 -141 -65 -241q-66 -93 -181 -142l310 -618h-332l-268 573h-185zM643 807q92 0 139 47q49 46 49 137q0 83 -49 129q-52 49 -139 49h-244v-362h244z" />
    <glyph glyph-name="S" unicode="S" horiz-adv-x="1122" 
d="M186 94q-133 118 -145 346h272q15 -118 74 -168q57 -45 172 -45q217 0 217 176q0 80 -41 121q-46 43 -139 58l-133 22q-391 65 -391 404q0 198 133 319q132 117 352 117q210 0 338 -113q129 -120 141 -330h-278q-3 102 -56 152q-51 45 -149 45q-101 0 -152 -45
q-49 -46 -49 -125q0 -68 43 -108q44 -41 144 -60l149 -26q373 -68 373 -408q0 -216 -139 -334q-139 -115 -375 -115q-232 0 -361 117z" />
    <glyph glyph-name="T" unicode="T" horiz-adv-x="1015" 
d="M653 1169v-1179h-291v1179h-360v254h1012v-254h-361z" />
    <glyph glyph-name="U" unicode="U" horiz-adv-x="1257" 
d="M362 39q-118 60 -184 174q-67 110 -67 254v956h288v-948q0 -115 62 -180q61 -64 166 -64q104 0 168 64q61 61 61 180v948h291v-956q0 -142 -68 -254q-70 -114 -186 -174q-118 -62 -266 -62q-147 0 -265 62z" />
    <glyph glyph-name="V" unicode="V" horiz-adv-x="1134" 
d="M838 1423h303l-459 -1433h-231l-457 1433h303l270 -948z" />
    <glyph glyph-name="W" unicode="W" horiz-adv-x="1705" 
d="M1440 1423h270l-342 -1433h-262l-250 1014l-248 -1014h-260l-352 1433h289l204 -956l199 956h350l209 -956z" />
    <glyph glyph-name="X" unicode="X" horiz-adv-x="1214" 
d="M23 1423h342l243 -446l240 446h330l-406 -678l453 -755h-344l-279 512l-283 -512h-329l446 745z" />
    <glyph glyph-name="Y" unicode="Y" horiz-adv-x="1107" 
d="M698 -10h-288v588l-418 845h315l246 -559l246 559h317l-418 -843v-590z" />
    <glyph glyph-name="Z" unicode="Z" horiz-adv-x="1034" 
d="M989 -10h-938v248l600 931h-588v254h908v-245l-598 -932h616v-256z" />
    <glyph glyph-name="bracketleft" unicode="[" horiz-adv-x="645" 
d="M563 1528v-256h-178v-1198h178v-256h-452v1710h452z" />
    <glyph glyph-name="backslash" unicode="\" horiz-adv-x="829" 
d="M311 1434l441 -1465h-234l-440 1465h233z" />
    <glyph glyph-name="bracketright" unicode="]" horiz-adv-x="647" 
d="M262 74v1192h-180v254h455v-1702h-455v256h180z" />
    <glyph glyph-name="asciicircum" unicode="^" horiz-adv-x="1083" 
d="M653 1434l357 -889h-232l-237 604l-238 -604h-231l356 889h225z" />
    <glyph glyph-name="underscore" unicode="_" horiz-adv-x="1024" 
d="M1034 -72v-186h-1044v186h1044z" />
    <glyph glyph-name="grave" unicode="`" horiz-adv-x="1024" 
d="M545 1487l239 -293h-245l-303 293h309z" />
    <glyph glyph-name="a" unicode="a" horiz-adv-x="1026" 
d="M813 989q113 -98 113 -289v-710h-267v78q-51 -48 -94 -66q-64 -25 -147 -25q-166 0 -260 91q-95 92 -95 251q0 149 101 234q100 86 274 86h215v74q0 82 -38.5 120.5t-120.5 38.5q-69 0 -107 -32q-39 -33 -39 -88v-17h-256v19q0 154 111 243q110 90 293 90q207 0 317 -98z
M612 246q41 44 41 133v65h-174q-149 0 -149 -118q0 -123 145 -123q97 0 137 43z" />
    <glyph glyph-name="b" unicode="b" horiz-adv-x="1054" 
d="M369 -10h-269v1433h275v-438q85 102 227 102q165 0 268 -112t103 -336v-211q0 -223 -103 -338q-104 -113 -260 -113q-149 0 -241 95v-82zM698 629q0 115 -43 164t-116 49q-76 0 -121 -54t-45 -159v-193q0 -106 45 -160q47 -53 127 -53q153 0 153 213v193z" />
    <glyph glyph-name="c" unicode="c" horiz-adv-x="1034" 
d="M201 88q-119 113 -119 346v199q0 231 119 344q116 110 323 110q203 0 314 -102q114 -102 114 -287v-30h-262v22q0 74 -43 111q-41 41 -119 41q-174 0 -174 -213v-193q0 -115 45 -166q47 -47 129 -47q77 0 119 39q43 37 43 107v22h262v-24q0 -183 -114 -285
q-111 -105 -314 -105q-206 0 -323 111z" />
    <glyph glyph-name="d" unicode="d" horiz-adv-x="1052" 
d="M184 90q-102 114 -102 338v211q0 227 100 336q100 112 260 112q152 0 238 -102v438h272v-1433h-268v82q-89 -95 -240 -95q-159 0 -260 113zM635 276q45 54 45 160v193q0 104 -43 159q-45 54 -121 54q-160 0 -160 -213v-193q0 -213 154 -213q81 0 125 53z" />
    <glyph glyph-name="e" unicode="e" horiz-adv-x="1058" 
d="M977 446h-623v-18q0 -116 49 -162q52 -49 146 -49q71 0 113 31q40 27 43 82l4 14h260v-20q0 -158 -117 -252q-118 -95 -313 -95q-208 0 -332 121q-125 119 -125 371v129q0 245 119 367q122 122 329 122q208 0 326 -124q121 -121 121 -365v-152zM530 850q-84 0 -131 -47
q-45 -51 -45 -162h348v16q0 193 -172 193z" />
    <glyph glyph-name="f" unicode="f" horiz-adv-x="684" 
d="M471 1208q-22 -22 -22 -69v-64h190v-198h-190v-887h-273v887h-113v198h113v53q0 141 80 218q77 77 225 77h158v-192h-94q-51 0 -74 -23z" />
    <glyph glyph-name="g" unicode="g" horiz-adv-x="1052" 
d="M213 -262q-111 88 -117 246h262q9 -53 52 -80q42 -29 110 -29q164 0 164 186v105q-88 -94 -240 -94q-160 0 -260 112q-102 114 -102 338v117q0 227 100 336q100 112 260 112q152 0 238 -102v90h272v-997q0 -197 -118 -309q-118 -115 -324 -115q-187 0 -297 84zM635 371
q45 54 45 159v99q0 104 -43 159q-45 54 -121 54q-160 0 -160 -213v-99q0 -213 154 -213q80 0 125 54z" />
    <glyph glyph-name="h" unicode="h" horiz-adv-x="1064" 
d="M375 1423v-428q41 41 96 66q65 26 139 26q168 0 262 -104q93 -107 93 -289v-704h-275v674q0 87 -43 133q-42 45 -112 45q-67 0 -115 -45q-45 -48 -45 -133v-674h-275v1433h275z" />
    <glyph glyph-name="i" unicode="i" horiz-adv-x="493" 
d="M385 1423v-223h-279v223h279zM383 1075v-1085h-272v1085h272z" />
    <glyph glyph-name="j" unicode="j" horiz-adv-x="493" 
d="M383 1423v-223h-279v223h279zM18 -90q49 0 70 24q23 26 23 86v1055h272v-1071q0 -159 -86 -248q-89 -86 -246 -86h-129v240h96z" />
    <glyph glyph-name="k" unicode="k" horiz-adv-x="1064" 
d="M375 311v-321h-275v1433h275v-770l330 422h327l-375 -436l398 -649h-332l-248 438z" />
    <glyph glyph-name="l" unicode="l" horiz-adv-x="587" 
d="M188 76q-88 88 -88 248v1099h275v-1083q0 -63 20 -86q22 -25 70 -25h96v-239h-127q-157 0 -246 86z" />
    <glyph glyph-name="m" unicode="m" horiz-adv-x="1654" 
d="M369 1075v-82q48 45 100 66q70 28 141 28q178 0 273 -126q123 126 301 126q175 0 272 -106q98 -104 98 -287v-704h-274v674q0 90 -43 133q-45 45 -113 45q-72 0 -116 -47q-43 -46 -43 -125v-680h-275v674q0 90 -43 133q-45 45 -112 45q-70 0 -115 -45t-45 -133v-674h-275
v1085h269z" />
    <glyph glyph-name="n" unicode="n" horiz-adv-x="1064" 
d="M369 1075v-82q42 42 100 66q67 28 141 28q169 0 262 -106q93 -107 93 -287v-704h-275v674q0 84 -43 133q-42 45 -112 45q-67 0 -115 -45q-45 -48 -45 -133v-674h-275v1085h269z" />
    <glyph glyph-name="o" unicode="o" horiz-adv-x="1044" 
d="M201 88q-119 113 -119 346v199q0 231 119 344q116 110 323 110q204 0 320 -110q119 -113 119 -344v-199q0 -233 -119 -346q-117 -111 -320 -111q-206 0 -323 111zM690 629q0 213 -166 213q-170 0 -170 -213v-193q0 -213 170 -213q166 0 166 213v193z" />
    <glyph glyph-name="p" unicode="p" horiz-adv-x="1054" 
d="M369 1075v-90q92 102 233 102q165 0 268 -112t103 -336v-211q0 -223 -103 -338q-104 -113 -260 -113q-145 0 -235 93v-400h-275v1405h269zM698 629q0 115 -43 164t-116 49q-76 0 -121 -54t-45 -159v-193q0 -106 45 -160q47 -53 127 -53q153 0 153 213v193z" />
    <glyph glyph-name="q" unicode="q" horiz-adv-x="1052" 
d="M680 70q-90 -93 -236 -93q-159 0 -260 113q-102 114 -102 338v211q0 225 102 336q100 112 267 112q145 0 233 -102v90h268v-1405h-272v400zM635 276q45 54 45 160v193q0 104 -43 159q-45 54 -121 54q-160 0 -160 -213v-193q0 -213 154 -213q81 0 125 53z" />
    <glyph glyph-name="r" unicode="r" horiz-adv-x="733" 
d="M610 1098q40 0 97 -11v-260q-79 27 -138 27q-89 0 -141 -55q-53 -56 -53 -160v-649h-275v1085h269v-88q34 47 90 76q68 35 151 35z" />
    <glyph glyph-name="s" unicode="s" horiz-adv-x="970" 
d="M178 70q-115 90 -115 245v19h259v-15q0 -53 43 -83q44 -33 120 -33q84 0 125 28q43 24 43 80q0 44 -30 68q-37 25 -113 37l-113 18q-162 27 -239 101q-80 77 -80 213q0 155 115 247t292 92q128 0 215 -40q93 -41 146 -115q51 -73 51 -164v-23h-256v17q0 50 -39 78
q-45 28 -117 28q-70 0 -112 -28q-37 -27 -37 -74q0 -43 29 -66q28 -25 98 -34l125 -19q164 -24 243 -100q84 -78 84 -217q0 -168 -122 -262q-123 -91 -316 -91q-183 0 -299 93z" />
    <glyph glyph-name="t" unicode="t" horiz-adv-x="720" 
d="M461 324q0 -99 94 -99h90v-235h-131q-152 0 -238 86q-88 85 -88 231v570h-147v198h147v207l273 94v-301h205v-198h-205v-553z" />
    <glyph glyph-name="u" unicode="u" horiz-adv-x="1064" 
d="M100 1075h275v-633q0 -113 33 -166q30 -53 124 -53q96 0 125 51q33 50 33 168v633h275v-645q0 -225 -107 -338q-109 -115 -326 -115q-432 0 -432 453v645z" />
    <glyph glyph-name="v" unicode="v" horiz-adv-x="985" 
d="M690 1075h291l-377 -1085h-225l-375 1085h291l199 -651z" />
    <glyph glyph-name="w" unicode="w" horiz-adv-x="1507" 
d="M1210 1075h293l-319 -1085h-232l-200 663l-199 -663h-231l-318 1085h291l160 -647l194 647h207l195 -647z" />
    <glyph glyph-name="x" unicode="x" horiz-adv-x="940" 
d="M461 315l-170 -325h-291l326 559l-308 526h291l170 -293l152 293h291l-312 -518l330 -567h-289z" />
    <glyph glyph-name="y" unicode="y" horiz-adv-x="987" 
d="M700 1075h283l-408 -1171q-43 -119 -122 -174q-77 -56 -209 -56h-99v248h91q59 0 86 21q28 21 43 73l4 13l-365 1046h291l201 -645z" />
    <glyph glyph-name="z" unicode="z" horiz-adv-x="931" 
d="M389 223h461v-233h-768v227l461 625h-461v233h768v-227z" />
    <glyph glyph-name="braceleft" unicode="{" horiz-adv-x="737" 
d="M305 -115q-67 67 -67 195v323q0 83 -33 119q-30 38 -123 35v238q93 -3 123 34q33 36 33 119v318q0 125 67 192q71 68 197 68h153v-226h-82q-75 0 -75 -79v-285q0 -121 -33 -180q-27 -52 -94 -80q68 -32 94 -82q33 -56 33 -178v-293q0 -80 75 -80h82v-225h-153
q-127 0 -197 67z" />
    <glyph glyph-name="bar" unicode="|" horiz-adv-x="604" 
d="M430 1526v-1708h-256v1708h256z" />
    <glyph glyph-name="braceright" unicode="}" horiz-adv-x="737" 
d="M164 43q78 0 78 80v293q0 124 32 178q26 50 95 82q-69 29 -95 80q-32 57 -32 180v285q0 79 -78 79h-82v226h156q126 0 194 -68t68 -192v-318q0 -79 32 -119q34 -37 123 -34v-238q-88 3 -123 -35q-32 -40 -32 -119v-323q0 -127 -68 -195q-67 -67 -194 -67h-156v225h82z
" />
    <glyph glyph-name="asciitilde" unicode="~" horiz-adv-x="1083" 
d="M610 408q-50 18 -100 51l-29 14.5t-28 13.5t-19 9q-27 10 -51 10q-40 0 -68 -25q-30 -24 -67 -94l-180 111q46 113 131 178q76 59 174 59q50 0 100 -16q48 -18 100 -51q29 -15 74 -35q24 -12 55 -12q43 0 70 24q33 26 66 94l180 -110q-49 -116 -129 -178
q-83 -62 -178 -62q-52 0 -101 19z" />
    <glyph glyph-name="uni00A0" unicode="&#xa0;" horiz-adv-x="468" 
 />
    <glyph glyph-name="exclamdown" unicode="&#xa1;" horiz-adv-x="509" 
d="M401 1075v-289h-292v289h292zM360 604l50 -934h-310l50 934h210z" />
    <glyph glyph-name="cent" unicode="&#xa2;" horiz-adv-x="1120" 
d="M690 690q0 74 -43 111q-41 41 -119 41q-174 0 -174 -213v-193q0 -115 45 -166q47 -47 129 -47q77 0 119 39q43 37 43 107v22h262v-24q0 -150 -84 -254q-87 -99 -227 -125v-203h-141v192q-191 6 -303 115q-115 112 -115 342v199q0 228 115 340q111 108 303 114v224h141
v-234q144 -26 227 -125q84 -101 84 -254v-30h-262v22z" />
    <glyph glyph-name="sterling" unicode="&#xa3;" horiz-adv-x="954" 
d="M913 242v-252h-835v237q52 22 69 64q21 41 21 121v143h-127v254h127v240q0 189 98 290q102 105 283 105q165 0 266 -90q101 -94 98 -271h-270q3 55 -25 86q-21 27 -65 27q-47 0 -72 -31q-24 -30 -24 -86v-270h266v-254h-266v-117q0 -123 -51 -196h507z" />
    <glyph glyph-name="currency" unicode="&#xa4;" horiz-adv-x="1218" 
d="M821 274q-94 -55 -213 -55t-213 55l-135 -135l-164 164l137 137q-51 86 -51 207q0 111 54 207l-140 139l164 164l137 -137q100 53 211 53q116 0 211 -53l139 137l162 -164l-137 -139q53 -95 53 -207q0 -120 -51 -209l137 -137l-164 -164zM752 500q57 60 57 147
q0 88 -57 148q-57 57 -144 57q-84 0 -141 -57q-57 -60 -57 -148q0 -87 57 -147t141 -60q87 0 144 60z" />
    <glyph glyph-name="yen" unicode="&#xa5;" horiz-adv-x="1017" 
d="M100 229v201h265v92h-265v201h215l-317 700h299l217 -549l209 549h297l-318 -700h216v-201h-265v-92h265v-201h-265v-239h-288v239h-265z" />
    <glyph glyph-name="brokenbar" unicode="&#xa6;" horiz-adv-x="604" 
d="M430 1526v-742h-256v742h256zM430 563v-745h-256v745h256z" />
    <glyph glyph-name="section" unicode="&#xa7;" horiz-adv-x="1046" 
d="M238 -260q-102 102 -99 278h252q-3 -143 121 -143q60 0 88 31q31 28 31 80q0 69 -43 106q-41 38 -168 74q-157 46 -234 141q-75 101 -75 256q0 111 49 193q44 77 119 123q-62 39 -93 102q-30 67 -30 158q0 95 47 172q48 79 131 121q80 45 194 45q182 0 277 -99
q97 -102 94 -272h-250q2 72 -27 106.5t-90 34.5q-54 0 -81 -30q-31 -28 -31 -80q0 -66 43 -103q36 -31 164 -69q155 -45 233 -142q76 -102 76 -256q0 -113 -51 -196q-47 -77 -119 -117q67 -45 98 -104q31 -70 31 -170q0 -146 -104 -240q-101 -94 -275 -94q-184 0 -278 94z
M631 440q39 45 39 125t-39 125q-36 45 -107 45q-70 0 -110 -43q-39 -45 -39 -127t39 -127q40 -43 110 -43q71 0 107 45z" />
    <glyph glyph-name="dieresis" unicode="&#xa8;" horiz-adv-x="1024" 
d="M434 1450v-258h-239v258h239zM827 1450v-258h-239v258h239z" />
    <glyph glyph-name="copyright" unicode="&#xa9;" horiz-adv-x="1605" 
d="M428 63q-163 91 -248 256q-88 166 -88 381q0 217 88 383q85 165 248 256t375 91q213 0 375 -93q162 -90 247 -256q88 -166 88 -381t-88 -381q-85 -166 -247 -256q-160 -92 -375 -92t-375 92zM1188 297q139 145 139 403t-139 406q-138 147 -385 147t-385 -147
q-139 -148 -139 -406t139 -403q138 -147 385 -147t385 147zM571 375q-88 82 -88 254v143q0 169 88 254q88 82 236 82q146 0 231 -76q84 -78 84 -211v-24h-196v18q0 52 -31 80q-29 29 -84 29q-125 0 -125 -154v-139q0 -83 33 -121q33 -33 92 -33q56 0 86 27q29 29 29 78v18
h196v-20q0 -132 -86 -209q-84 -78 -229 -78q-148 0 -236 82z" />
    <glyph glyph-name="ordfeminine" unicode="&#xaa;" horiz-adv-x="722" 
d="M551 1481q74 -62 74 -183v-428h-197v39q-32 -25 -53 -32q-37 -15 -86 -15q-106 0 -166 60t-60 157q0 92 66 146q65 53 176 53h117v31q0 38 -19.5 55.5t-60.5 17.5q-34 0 -51 -14q-19 -16 -19 -39v-14h-190v14q0 101 72 158q70 55 190 55q137 0 207 -61zM401 1053
q21 21 21 61v21h-88q-74 0 -74 -50q0 -22 16 -38q18 -15 56 -15q51 0 69 21z" />
    <glyph glyph-name="guillemotleft" unicode="&#xab;" horiz-adv-x="1075" 
d="M510 1030v-297l-191 -192l191 -193v-297l-487 490zM975 1030v-297l-193 -192l193 -193v-297l-490 490z" />
    <glyph glyph-name="logicalnot" unicode="&#xac;" horiz-adv-x="1083" 
d="M92 510v248h897v-522h-272v274h-625z" />
    <glyph glyph-name="uni00AD" unicode="&#xad;" horiz-adv-x="747" 
d="M666 836v-256h-584v256h584z" />
    <glyph glyph-name="registered" unicode="&#xae;" horiz-adv-x="1013" 
d="M852 1227q51 -86 51 -203q0 -119 -51 -205q-51 -92 -141 -145q-92 -53 -205 -53q-114 0 -203 53q-90 53 -141 145q-51 86 -51 205q0 116 51 205q52 90 141 143q92 53 203 53q113 0 205 -53q90 -53 141 -145zM715 807q80 86 80 217q0 132 -82 217q-82 82 -207 82t-207 -82
q-82 -85 -82 -217t82 -217q81 -84 207 -84q122 0 201 76h-132l-75 159h-35v-159h-127v454h190q81 0 123 -36q45 -39 45 -109q0 -86 -71 -127l86 -178zM569 1106q0 37 -47 37h-57v-74h57q47 0 47 37z" />
    <glyph glyph-name="macron" unicode="&#xaf;" horiz-adv-x="1024" 
d="M811 1444v-246h-598v246h598z" />
    <glyph glyph-name="degree" unicode="&#xb0;" horiz-adv-x="806" 
d="M180 911q-88 91 -88 224q0 86 41 157q40 70 113 113q71 41 157 41q87 0 158 -41q70 -43 113 -113q41 -71 41 -157q0 -87 -41 -158q-43 -73 -113 -113q-71 -41 -158 -41q-132 0 -223 88zM498 1036q37 40 37 99q0 58 -37 98q-39 39 -95 39q-60 0 -94 -37q-37 -40 -37 -100
q0 -61 37 -101q34 -37 94 -37q56 0 95 39z" />
    <glyph glyph-name="plusminus" unicode="&#xb1;" horiz-adv-x="1083" 
d="M88 565v254h328v328h254v-328h325v-254h-325v-327h-254v327h-328zM995 170v-254h-907v254h907z" />
    <glyph glyph-name="uni00B2" unicode="&#xb2;" horiz-adv-x="708" 
d="M362 1401q39 48 39 90v14q0 31 -14 45q-14 17 -39 17q-23 0 -37 -17t-14 -49v-28h-223v40q0 112 78 181q72 69 206 69q127 0 201 -71q78 -75 78 -176v-23q0 -57 -21 -109q-27 -51 -63 -96l-174 -215h258v-203h-557v179z" />
    <glyph glyph-name="uni00B3" unicode="&#xb3;" horiz-adv-x="698" 
d="M139 918q-73 64 -73 180v41h210v-31q0 -57 66 -57q30 0 45 18q16 19 16 53v19q0 82 -77 82h-54v194h52q32 0 49 17q16 19 16 51v16q0 66 -53 66q-57 0 -57 -54v-32h-209v30q0 120 73 187q71 65 201 65q126 0 197 -65t71 -178v-19q0 -107 -82 -162q45 -25 68 -69
q29 -56 29 -125v-23q0 -120 -80 -194q-78 -72 -199 -72q-135 0 -209 62z" />
    <glyph glyph-name="acute" unicode="&#xb4;" horiz-adv-x="1024" 
d="M786 1487l-303 -293h-245l239 293h309z" />
    <glyph glyph-name="uni00B5" unicode="&#xb5;" horiz-adv-x="1064" 
d="M375 1075v-674q0 -84 43 -133q42 -45 112 -45q67 0 115 45q45 48 45 133v674h275v-1085h-269v78q-82 -91 -202 -91q-66 0 -121 27v-334h-273v1405h275z" />
    <glyph glyph-name="paragraph" unicode="&#xb6;" horiz-adv-x="1318" 
d="M514 508q-117 12 -205 70q-93 59 -145 161q-53 103 -53 228q0 132 57 231q60 107 166 166t252 59h561v-1753h-240v1528h-147v-1528h-246v838z" />
    <glyph glyph-name="periodcentered" unicode="&#xb7;" horiz-adv-x="440" 
d="M373 727v-311h-305v311h305z" />
    <glyph glyph-name="cedilla" unicode="&#xb8;" horiz-adv-x="1024" 
d="M676 37l-115 -367h-256l150 367h221z" />
    <glyph glyph-name="uni00B9" unicode="&#xb9;" horiz-adv-x="518" 
d="M49 1391v251l148 107h223v-879h-232v619z" />
    <glyph glyph-name="ordmasculine" unicode="&#xba;" horiz-adv-x="727" 
d="M156 932q-78 72 -78 213v117q0 142 78 211q72 69 209 69q133 0 208 -69q76 -70 76 -211v-117q0 -140 -76 -213q-79 -70 -208 -70q-133 0 -209 70zM444 1260q0 98 -82 98q-81 0 -81 -98v-115q0 -98 81 -98q82 0 82 98v115z" />
    <glyph glyph-name="guillemotright" unicode="&#xbb;" horiz-adv-x="1075" 
d="M293 541l-193 192v297l490 -489l-490 -490v297zM756 541l-191 192v297l488 -489l-488 -490v297z" />
    <glyph glyph-name="onequarter" unicode="&#xbc;" horiz-adv-x="1646" 
d="M1239 1434l-801 -1444h-223l799 1444h225zM49 1065v252l148 106h223v-878h-232v618zM1550 106v-116h-231v116h-332v195l240 567h233l-235 -559h94v180h231v-180h56v-203h-56z" />
    <glyph glyph-name="onehalf" unicode="&#xbd;" horiz-adv-x="1644" 
d="M1239 1434l-801 -1444h-223l799 1444h225zM49 1065v252l148 106h223v-878h-232v618zM1298 520q39 48 39 90v15q0 31 -14 45q-13 16 -39 16q-24 0 -37 -16q-14 -17 -14 -49v-29h-223v41q0 112 77 180q73 70 207 70q126 0 201 -72q78 -75 78 -176v-23q0 -56 -21 -108
q-27 -51 -63 -96l-174 -215h258v-203h-557v178z" />
    <glyph glyph-name="threequarters" unicode="&#xbe;" horiz-adv-x="1826" 
d="M139 592q-73 64 -73 180v41h210v-31q0 -57 66 -57q30 0 45 18q16 19 16 54v18q0 82 -77 82h-54v195h52q33 0 49 16q16 19 16 51v17q0 65 -53 65q-57 0 -57 -53v-33h-209v31q0 119 73 186q72 66 201 66q125 0 197 -66q71 -65 71 -178v-18q0 -107 -82 -162q45 -25 68 -70
q29 -56 29 -125v-22q0 -121 -80 -195q-78 -72 -199 -72q-135 0 -209 62zM1419 1434l-801 -1444h-223l799 1444h225zM1731 106v-116h-232v116h-332v195l240 567h233l-235 -559h94v180h232v-180h55v-203h-55z" />
    <glyph glyph-name="questiondown" unicode="&#xbf;" horiz-adv-x="923" 
d="M618 1075v-287h-286v287h286zM254 -303q-94 49 -143 131q-52 85 -52 190q0 84 27 154q26 64 90 141l90 105q47 53 60 90q12 34 12 94v70h274v-88q0 -88 -18 -144q-19 -55 -84 -129l-96 -112q-40 -45 -56 -86q-16 -33 -16 -80q0 -64 35 -99q30 -34 100 -34q71 0 101 37
q32 40 32 126h269q0 -202 -109 -311q-108 -102 -301 -102q-123 0 -215 47z" />
    <glyph glyph-name="Agrave" unicode="&#xc0;" horiz-adv-x="1241" 
d="M819 1542h-246l-303 293h310zM737 1423l510 -1433h-307l-86 274h-469l-86 -274h-305l508 1433h235zM463 508h313l-158 498z" />
    <glyph glyph-name="Aacute" unicode="&#xc1;" horiz-adv-x="1241" 
d="M956 1835l-303 -293h-245l239 293h309zM737 1423l510 -1433h-307l-86 274h-469l-86 -274h-305l508 1433h235zM463 508h313l-158 498z" />
    <glyph glyph-name="Acircumflex" unicode="&#xc2;" horiz-adv-x="1241" 
d="M621 1673l-125 -153h-226l252 329h195l252 -329h-224zM737 1423l510 -1433h-307l-86 274h-469l-86 -274h-305l508 1433h235zM463 508h313l-158 498z" />
    <glyph glyph-name="Atilde" unicode="&#xc3;" horiz-adv-x="1241" 
d="M487 1610q-37 0 -67 -15q-31 -16 -101 -77v211q52 52 89 71q41 23 88 23q33 0 75 -11q51 -20 74 -34q71 -33 109 -33q39 0 67 14q36 19 99 82v-215q-54 -54 -89 -72q-39 -22 -88 -22q-35 0 -73 10q-46 18 -74 35q-71 33 -109 33zM737 1423l510 -1433h-307l-86 274h-469
l-86 -274h-305l508 1433h235zM463 508h313l-158 498z" />
    <glyph glyph-name="Adieresis" unicode="&#xc4;" horiz-adv-x="1241" 
d="M543 1798v-258h-240v258h240zM936 1798v-258h-240v258h240zM737 1423l510 -1433h-307l-86 274h-469l-86 -274h-305l508 1433h235zM463 508h313l-158 498z" />
    <glyph glyph-name="Aring" unicode="&#xc5;" horiz-adv-x="1241" 
d="M743 1405l504 -1415h-307l-86 274h-469l-86 -274h-305l504 1419q-45 28 -68 76q-29 50 -29 108q0 96 64 160t158 64q93 0 157 -64t64 -160q0 -59 -29 -112q-26 -47 -72 -76zM563 1659q-24 -27 -24 -66q0 -36 24 -63q25 -25 60 -25q36 0 61 25q25 28 25 63q0 38 -25 66
q-24 24 -61 24q-39 0 -60 -24zM463 508h313l-158 498z" />
    <glyph glyph-name="AE" unicode="&#xc6;" horiz-adv-x="1808" 
d="M1747 1169h-608v-329h516v-254h-516v-342h608v-254h-899v289h-414l-137 -289h-305l706 1433h1049v-254zM553 522h295v617z" />
    <glyph glyph-name="Ccedilla" unicode="&#xc7;" 
d="M848 963q0 103 -60 163q-59 62 -170 62q-124 0 -178 -76q-57 -75 -57 -256v-305q0 -169 57 -244q59 -74 183 -74q108 0 168 60q57 57 57 160v26h285v-24q0 -196 -99 -316q-99 -117 -270 -151l-98 -318h-256l125 307q-443 47 -443 570v323q0 286 133 430t396 144
q234 0 374 -125q142 -127 142 -354v-25h-289v23z" />
    <glyph glyph-name="Egrave" unicode="&#xc8;" horiz-adv-x="1089" 
d="M508 1835l240 -293h-246l-303 293h309zM399 840h537v-254h-537v-342h629v-254h-917v1433h917v-254h-629v-329z" />
    <glyph glyph-name="Eacute" unicode="&#xc9;" horiz-adv-x="1089" 
d="M885 1835l-303 -293h-246l239 293h310zM399 840h537v-254h-537v-342h629v-254h-917v1433h917v-254h-629v-329z" />
    <glyph glyph-name="Ecircumflex" unicode="&#xca;" horiz-adv-x="1089" 
d="M645 1849l252 -329h-223l-125 153l-125 -153h-225l252 329h194zM399 840h537v-254h-537v-342h629v-254h-917v1433h917v-254h-629v-329z" />
    <glyph glyph-name="Edieresis" unicode="&#xcb;" horiz-adv-x="1089" 
d="M471 1798v-258h-240v258h240zM864 1798v-258h-239v258h239zM399 840h537v-254h-537v-342h629v-254h-917v1433h917v-254h-629v-329z" />
    <glyph glyph-name="Igrave" unicode="&#xcc;" horiz-adv-x="534" 
d="M225 1835l240 -293h-246l-303 293h309zM412 1423v-1433h-289v1433h289z" />
    <glyph glyph-name="Iacute" unicode="&#xcd;" horiz-adv-x="534" 
d="M602 1835l-303 -293h-246l240 293h309zM412 1423v-1433h-289v1433h289z" />
    <glyph glyph-name="Icircumflex" unicode="&#xce;" horiz-adv-x="534" 
d="M362 1849l252 -329h-223l-125 153l-125 -153h-225l252 329h194zM412 1423v-1433h-289v1433h289z" />
    <glyph glyph-name="Idieresis" unicode="&#xcf;" horiz-adv-x="534" 
d="M188 1798v-258h-239v258h239zM582 1798v-258h-240v258h240zM412 1423v-1433h-289v1433h289z" />
    <glyph glyph-name="Eth" unicode="&#xd0;" horiz-adv-x="1294" 
d="M1063 1290q139 -133 139 -438v-289q0 -304 -143 -438q-141 -135 -383 -135h-500v602h-131v256h131v575h508q240 0 379 -133zM913 838q0 179 -57 256q-57 75 -174 75h-217v-321h242v-256h-242v-348h217q114 0 174 75q57 75 57 246v273z" />
    <glyph glyph-name="Ntilde" unicode="&#xd1;" horiz-adv-x="1298" 
d="M516 1610q-37 0 -67 -15q-31 -16 -101 -77v211q53 53 88 71q41 23 88 23q34 0 76 -11q51 -20 74 -34q71 -33 108 -33q40 0 68 14q33 17 98 82v-215q-55 -55 -88 -72q-39 -22 -88 -22q-36 0 -74 10q-43 17 -73 35q-71 33 -109 33zM899 1423h289v-1433h-285l-504 856v-856
h-288v1433h284l504 -858v858z" />
    <glyph glyph-name="Ograve" unicode="&#xd2;" 
d="M573 1835l240 -293h-246l-303 293h309zM92 870q0 574 524 574q241 0 379 -135q142 -136 142 -439v-323q0 -303 -144 -438q-142 -136 -385 -136q-257 0 -386.5 144t-129.5 430v323zM791 309q57 72 57 242v305q0 179 -57 256q-57 76 -175 76q-122 0 -178 -74
q-55 -76 -55 -258v-305q0 -170 55 -246q57 -72 178 -72q120 0 175 76z" />
    <glyph glyph-name="Oacute" unicode="&#xd3;" 
d="M950 1835l-303 -293h-246l240 293h309zM92 870q0 574 524 574q241 0 379 -135q142 -136 142 -439v-323q0 -303 -144 -438q-142 -136 -385 -136q-257 0 -386.5 144t-129.5 430v323zM791 309q57 72 57 242v305q0 179 -57 256q-57 76 -175 76q-122 0 -178 -74
q-55 -76 -55 -258v-305q0 -170 55 -246q57 -72 178 -72q120 0 175 76z" />
    <glyph glyph-name="Ocircumflex" unicode="&#xd4;" 
d="M711 1849l252 -329h-224l-125 153l-125 -153h-225l252 329h195zM92 870q0 574 524 574q241 0 379 -135q142 -136 142 -439v-323q0 -303 -144 -438q-142 -136 -385 -136q-257 0 -386.5 144t-129.5 430v323zM791 309q57 72 57 242v305q0 179 -57 256q-57 76 -175 76
q-122 0 -178 -74q-55 -76 -55 -258v-305q0 -170 55 -246q57 -72 178 -72q120 0 175 76z" />
    <glyph glyph-name="Otilde" unicode="&#xd5;" 
d="M313 1729q53 53 88 71q41 23 88 23q34 0 76 -11q51 -20 74 -34q71 -33 109 -33q39 0 67 14q33 17 98 82v-215q-55 -55 -88 -72q-39 -22 -88 -22q-35 0 -73 10q-46 18 -74 35q-71 33 -109 33q-37 0 -67 -15q-31 -16 -101 -77v211zM92 870q0 574 524 574q241 0 379 -135
q142 -136 142 -439v-323q0 -303 -144 -438q-142 -136 -385 -136q-257 0 -386.5 144t-129.5 430v323zM791 309q57 72 57 242v305q0 179 -57 256q-57 76 -175 76q-122 0 -178 -74q-55 -76 -55 -258v-305q0 -170 55 -246q57 -72 178 -72q120 0 175 76z" />
    <glyph glyph-name="Odieresis" unicode="&#xd6;" 
d="M537 1798v-258h-240v258h240zM930 1798v-258h-240v258h240zM92 870q0 574 524 574q241 0 379 -135q142 -136 142 -439v-323q0 -303 -144 -438q-142 -136 -385 -136q-257 0 -386.5 144t-129.5 430v323zM791 309q57 72 57 242v305q0 179 -57 256q-57 76 -175 76
q-122 0 -178 -74q-55 -76 -55 -258v-305q0 -170 55 -246q57 -72 178 -72q120 0 175 76z" />
    <glyph glyph-name="multiply" unicode="&#xd7;" horiz-adv-x="1083" 
d="M371 565l-244 246l170 170l246 -244l243 244l170 -172l-243 -244l243 -243l-170 -172l-243 245l-246 -245l-170 172z" />
    <glyph glyph-name="Oslash" unicode="&#xd8;" 
d="M1026 1272q111 -138 111 -402v-323q0 -303 -144 -438q-142 -136 -385 -136q-181 0 -297 70l-55 -94h-172l115 196q-107 137 -107 402v323q0 574 524 574q180 0 299 -72l60 103h170zM774 1130q-55 58 -158 58q-122 0 -178 -74q-55 -76 -55 -258v-305q0 -38 4 -84zM453 289
q59 -56 163 -56q120 0 175 76q57 72 57 242v305q0 50 -6 100z" />
    <glyph glyph-name="Ugrave" unicode="&#xd9;" horiz-adv-x="1257" 
d="M588 1835l239 -293h-245l-303 293h309zM362 39q-118 60 -184 174q-67 110 -67 254v956h288v-948q0 -115 62 -180q61 -64 166 -64q104 0 168 64q61 61 61 180v948h291v-956q0 -142 -68 -254q-70 -114 -186 -174q-118 -62 -266 -62q-147 0 -265 62z" />
    <glyph glyph-name="Uacute" unicode="&#xda;" horiz-adv-x="1257" 
d="M965 1835l-303 -293h-246l239 293h310zM362 39q-118 60 -184 174q-67 110 -67 254v956h288v-948q0 -115 62 -180q61 -64 166 -64q104 0 168 64q61 61 61 180v948h291v-956q0 -142 -68 -254q-70 -114 -186 -174q-118 -62 -266 -62q-147 0 -265 62z" />
    <glyph glyph-name="Ucircumflex" unicode="&#xdb;" horiz-adv-x="1257" 
d="M725 1849l252 -329h-223l-125 153l-125 -153h-225l251 329h195zM362 39q-118 60 -184 174q-67 110 -67 254v956h288v-948q0 -115 62 -180q61 -64 166 -64q104 0 168 64q61 61 61 180v948h291v-956q0 -142 -68 -254q-70 -114 -186 -174q-118 -62 -266 -62q-147 0 -265 62z
" />
    <glyph glyph-name="Udieresis" unicode="&#xdc;" horiz-adv-x="1257" 
d="M551 1798v-258h-240v258h240zM944 1798v-258h-239v258h239zM362 39q-118 60 -184 174q-67 110 -67 254v956h288v-948q0 -115 62 -180q61 -64 166 -64q104 0 168 64q61 61 61 180v948h291v-956q0 -142 -68 -254q-70 -114 -186 -174q-118 -62 -266 -62q-147 0 -265 62z" />
    <glyph glyph-name="Yacute" unicode="&#xdd;" horiz-adv-x="1107" 
d="M889 1835l-303 -293h-246l240 293h309zM698 -10h-288v588l-418 845h315l246 -559l246 559h317l-418 -843v-590z" />
    <glyph glyph-name="Thorn" unicode="&#xde;" horiz-adv-x="1161" 
d="M995 1069q127 -121 127 -334q0 -200 -127 -321q-128 -119 -346 -119h-250v-305h-288v1433h288v-233h250q219 0 346 -121zM782 598q52 49 52 137q0 98 -52 150q-51 51 -145 51h-238v-387h238q90 0 145 49z" />
    <glyph glyph-name="germandbls" unicode="&#xdf;" horiz-adv-x="1073" 
d="M586 215q62 0 92 23q26 23 35 71q6 52 6 162q0 113 -8 160q-9 47 -41 76q-35 24 -103 24h-57v232h74q62 0 90 28q26 29 26 92q0 66 -36 95q-42 28 -121 28q-87 0 -129 -39q-39 -42 -39 -125v-1052h-275v1030q0 204 105 315q106 109 336 109q201 0 317 -90
q115 -90 115 -258q0 -80 -29 -146q-24 -53 -80 -94q54 -31 78 -74q30 -50 39 -120q10 -78 10 -195q0 -185 -30 -287q-28 -99 -115 -151q-80 -47 -242 -47h-94v233h76z" />
    <glyph glyph-name="agrave" unicode="&#xe0;" horiz-adv-x="1026" 
d="M455 1487l239 -293h-245l-304 293h310zM813 989q113 -98 113 -289v-710h-267v78q-51 -48 -94 -66q-64 -25 -147 -25q-166 0 -260 91q-95 92 -95 251q0 149 101 234q100 86 274 86h215v74q0 82 -38.5 120.5t-120.5 38.5q-69 0 -107 -32q-39 -33 -39 -88v-17h-256v19
q0 154 111 243q110 90 293 90q207 0 317 -98zM612 246q41 44 41 133v65h-174q-149 0 -149 -118q0 -123 145 -123q97 0 137 43z" />
    <glyph glyph-name="aacute" unicode="&#xe1;" horiz-adv-x="1026" 
d="M831 1487l-303 -293h-245l239 293h309zM813 989q113 -98 113 -289v-710h-267v78q-51 -48 -94 -66q-64 -25 -147 -25q-166 0 -260 91q-95 92 -95 251q0 149 101 234q100 86 274 86h215v74q0 82 -38.5 120.5t-120.5 38.5q-69 0 -107 -32q-39 -33 -39 -88v-17h-256v19
q0 154 111 243q110 90 293 90q207 0 317 -98zM612 246q41 44 41 133v65h-174q-149 0 -149 -118q0 -123 145 -123q97 0 137 43z" />
    <glyph glyph-name="acircumflex" unicode="&#xe2;" horiz-adv-x="1026" 
d="M592 1501l252 -330h-223l-125 154l-125 -154h-226l252 330h195zM813 989q113 -98 113 -289v-710h-267v78q-51 -48 -94 -66q-64 -25 -147 -25q-166 0 -260 91q-95 92 -95 251q0 149 101 234q100 86 274 86h215v74q0 82 -38.5 120.5t-120.5 38.5q-69 0 -107 -32
q-39 -33 -39 -88v-17h-256v19q0 154 111 243q110 90 293 90q207 0 317 -98zM612 246q41 44 41 133v65h-174q-149 0 -149 -118q0 -123 145 -123q97 0 137 43z" />
    <glyph glyph-name="atilde" unicode="&#xe3;" horiz-adv-x="1026" 
d="M195 1380q55 55 88 72q41 23 88 23q33 0 75 -11q51 -20 74 -34q71 -33 109 -33q39 0 67 14q36 19 99 82v-215q-55 -55 -88 -72q-39 -22 -89 -22q-35 0 -73 10q-46 18 -74 35q-71 33 -109 33q-37 0 -67 -15q-25 -13 -100 -78v211zM813 989q113 -98 113 -289v-710h-267v78
q-51 -48 -94 -66q-64 -25 -147 -25q-166 0 -260 91q-95 92 -95 251q0 149 101 234q100 86 274 86h215v74q0 82 -38.5 120.5t-120.5 38.5q-69 0 -107 -32q-39 -33 -39 -88v-17h-256v19q0 154 111 243q110 90 293 90q207 0 317 -98zM612 246q41 44 41 133v65h-174
q-149 0 -149 -118q0 -123 145 -123q97 0 137 43z" />
    <glyph glyph-name="adieresis" unicode="&#xe4;" horiz-adv-x="1026" 
d="M418 1450v-258h-240v258h240zM811 1450v-258h-240v258h240zM813 989q113 -98 113 -289v-710h-267v78q-51 -48 -94 -66q-64 -25 -147 -25q-166 0 -260 91q-95 92 -95 251q0 149 101 234q100 86 274 86h215v74q0 82 -38.5 120.5t-120.5 38.5q-69 0 -107 -32
q-39 -33 -39 -88v-17h-256v19q0 154 111 243q110 90 293 90q207 0 317 -98zM612 246q41 44 41 133v65h-174q-149 0 -149 -118q0 -123 145 -123q97 0 137 43z" />
    <glyph glyph-name="aring" unicode="&#xe5;" horiz-adv-x="1026" 
d="M338 1174q-64 64 -64 157q0 96 64 160q63 63 158 63q94 0 157 -63q64 -64 64 -160q0 -93 -64 -157t-157 -64q-94 0 -158 64zM557 1268q25 28 25 63q0 38 -25 66q-24 24 -61 24q-39 0 -60 -24q-24 -27 -24 -66q0 -36 24 -63q25 -25 60 -25q36 0 61 25zM813 989
q113 -98 113 -289v-710h-267v78q-51 -48 -94 -66q-64 -25 -147 -25q-166 0 -260 91q-95 92 -95 251q0 149 101 234q100 86 274 86h215v74q0 82 -38.5 120.5t-120.5 38.5q-69 0 -107 -32q-39 -33 -39 -88v-17h-256v19q0 154 111 243q110 90 293 90q207 0 317 -98zM612 246
q41 44 41 133v65h-174q-149 0 -149 -118q0 -123 145 -123q97 0 137 43z" />
    <glyph glyph-name="ae" unicode="&#xe6;" horiz-adv-x="1628" 
d="M1546 446h-620v-18q0 -116 49 -162q49 -49 143 -49q68 0 113 31q39 28 45 80v16h262v-20q0 -94 -47 -174q-50 -80 -141 -125q-94 -48 -224 -48q-210 0 -335 125q-53 -53 -142 -90q-80 -35 -194 -35q-175 0 -285 93q-107 91 -107 249q0 149 101 234q100 86 274 86h215v74
q0 82 -38.5 120.5t-120.5 38.5q-69 0 -107 -32q-39 -33 -39 -88v-17h-256v19q0 154 111 243q110 90 293 90q198 0 311 -98q116 98 295 98q205 0 323 -124q121 -121 121 -365v-152zM1102 850q-84 0 -131 -47q-45 -51 -45 -162h348v16q0 193 -172 193zM653 389v55h-174
q-149 0 -149 -118q0 -123 145 -123q178 0 178 186z" />
    <glyph glyph-name="ccedilla" unicode="&#xe7;" horiz-adv-x="1034" 
d="M690 690q0 74 -43 111q-41 41 -119 41q-174 0 -174 -213v-193q0 -115 45 -166q47 -47 129 -47q77 0 119 39q43 37 43 107v22h262v-24q0 -148 -78 -244q-74 -95 -208 -129l-101 -324h-256l127 314q-165 21 -256 129q-98 110 -98 321v199q0 231 119 344q116 110 323 110
q203 0 314 -102q114 -102 114 -287v-30h-262v22z" />
    <glyph glyph-name="egrave" unicode="&#xe8;" horiz-adv-x="1058" 
d="M727 1194h-246l-303 293h309zM977 446h-623v-18q0 -116 49 -162q52 -49 146 -49q71 0 113 31q40 27 43 82l4 14h260v-20q0 -158 -117 -252q-118 -95 -313 -95q-208 0 -332 121q-125 119 -125 371v129q0 245 119 367q122 122 329 122q208 0 326 -124q121 -121 121 -365
v-152zM530 850q-84 0 -131 -47q-45 -51 -45 -162h348v16q0 193 -172 193z" />
    <glyph glyph-name="eacute" unicode="&#xe9;" horiz-adv-x="1058" 
d="M864 1487l-303 -293h-246l240 293h309zM977 446h-623v-18q0 -116 49 -162q52 -49 146 -49q71 0 113 31q40 27 43 82l4 14h260v-20q0 -158 -117 -252q-118 -95 -313 -95q-208 0 -332 121q-125 119 -125 371v129q0 245 119 367q122 122 329 122q208 0 326 -124
q121 -121 121 -365v-152zM530 850q-84 0 -131 -47q-45 -51 -45 -162h348v16q0 193 -172 193z" />
    <glyph glyph-name="ecircumflex" unicode="&#xea;" horiz-adv-x="1058" 
d="M528 1325l-125 -154h-225l252 330h195l252 -330h-224zM977 446h-623v-18q0 -116 49 -162q52 -49 146 -49q71 0 113 31q40 27 43 82l4 14h260v-20q0 -158 -117 -252q-118 -95 -313 -95q-208 0 -332 121q-125 119 -125 371v129q0 245 119 367q122 122 329 122
q208 0 326 -124q121 -121 121 -365v-152zM530 850q-84 0 -131 -47q-45 -51 -45 -162h348v16q0 193 -172 193z" />
    <glyph glyph-name="edieresis" unicode="&#xeb;" horiz-adv-x="1058" 
d="M451 1450v-258h-240v258h240zM844 1450v-258h-240v258h240zM977 446h-623v-18q0 -116 49 -162q52 -49 146 -49q71 0 113 31q40 27 43 82l4 14h260v-20q0 -158 -117 -252q-118 -95 -313 -95q-208 0 -332 121q-125 119 -125 371v129q0 245 119 367q122 122 329 122
q208 0 326 -124q121 -121 121 -365v-152zM530 850q-84 0 -131 -47q-45 -51 -45 -162h348v16q0 193 -172 193z" />
    <glyph glyph-name="igrave" unicode="&#xec;" horiz-adv-x="493" 
d="M205 1487l239 -293h-245l-303 293h309zM383 1075v-1085h-272v1085h272z" />
    <glyph glyph-name="iacute" unicode="&#xed;" horiz-adv-x="493" 
d="M582 1487l-303 -293h-246l239 293h310zM383 1075v-1085h-272v1085h272z" />
    <glyph glyph-name="icircumflex" unicode="&#xee;" horiz-adv-x="493" 
d="M342 1501l252 -330h-223l-125 154l-125 -154h-225l251 330h195zM383 1075v-1085h-272v1085h272z" />
    <glyph glyph-name="idieresis" unicode="&#xef;" horiz-adv-x="493" 
d="M168 1450v-258h-240v258h240zM561 1450v-258h-239v258h239zM383 1075v-1085h-272v1085h272z" />
    <glyph glyph-name="eth" unicode="&#xf0;" horiz-adv-x="1042" 
d="M907 811q54 -131 54 -281v-84q0 -227 -115 -354q-116 -125 -328 -125q-206 0 -323 123q-113 125 -113 338v90q0 202 96 324q100 121 271 121q56 0 112 -17l-98 141l-213 -65l-57 180l157 49l-129 183h289l78 -111l198 61l58 -180l-142 -45l41 -57q109 -154 164 -291z
M702 434v88q0 215 -180 215q-184 0 -184 -211v-94q0 -223 184 -223q180 0 180 225z" />
    <glyph glyph-name="ntilde" unicode="&#xf1;" horiz-adv-x="1064" 
d="M231 1380q55 55 88 72q41 23 89 23q33 0 75 -11q51 -20 74 -34q71 -33 109 -33q39 0 67 14q33 17 98 82v-215q-55 -55 -88 -72q-39 -22 -88 -22q-35 0 -73 10q-46 18 -74 35q-71 33 -109 33q-37 0 -67 -15q-28 -14 -101 -78v211zM369 1075v-82q42 42 100 66q67 28 141 28
q169 0 262 -106q93 -107 93 -287v-704h-275v674q0 84 -43 133q-42 45 -112 45q-67 0 -115 -45q-45 -48 -45 -133v-674h-275v1085h269z" />
    <glyph glyph-name="ograve" unicode="&#xf2;" horiz-adv-x="1044" 
d="M483 1487l240 -293h-246l-303 293h309zM201 88q-119 113 -119 346v199q0 231 119 344q116 110 323 110q204 0 320 -110q119 -113 119 -344v-199q0 -233 -119 -346q-117 -111 -320 -111q-206 0 -323 111zM690 629q0 213 -166 213q-170 0 -170 -213v-193q0 -213 170 -213
q166 0 166 213v193z" />
    <glyph glyph-name="oacute" unicode="&#xf3;" horiz-adv-x="1044" 
d="M860 1487l-303 -293h-246l240 293h309zM201 88q-119 113 -119 346v199q0 231 119 344q116 110 323 110q204 0 320 -110q119 -113 119 -344v-199q0 -233 -119 -346q-117 -111 -320 -111q-206 0 -323 111zM690 629q0 213 -166 213q-170 0 -170 -213v-193q0 -213 170 -213
q166 0 166 213v193z" />
    <glyph glyph-name="ocircumflex" unicode="&#xf4;" horiz-adv-x="1044" 
d="M621 1501l251 -330h-223l-125 154l-125 -154h-225l252 330h195zM201 88q-119 113 -119 346v199q0 231 119 344q116 110 323 110q204 0 320 -110q119 -113 119 -344v-199q0 -233 -119 -346q-117 -111 -320 -111q-206 0 -323 111zM690 629q0 213 -166 213q-170 0 -170 -213
v-193q0 -213 170 -213q166 0 166 213v193z" />
    <glyph glyph-name="otilde" unicode="&#xf5;" horiz-adv-x="1044" 
d="M223 1380q55 55 88 72q41 23 88 23q34 0 76 -11q51 -20 74 -34q71 -33 108 -33q40 0 68 14q33 17 98 82v-215q-55 -55 -88 -72q-39 -22 -88 -22q-36 0 -74 10q-43 17 -73 35q-71 33 -109 33q-37 0 -67 -15q-28 -14 -101 -78v211zM201 88q-119 113 -119 346v199
q0 231 119 344q116 110 323 110q204 0 320 -110q119 -113 119 -344v-199q0 -233 -119 -346q-117 -111 -320 -111q-206 0 -323 111zM690 629q0 213 -166 213q-170 0 -170 -213v-193q0 -213 170 -213q166 0 166 213v193z" />
    <glyph glyph-name="odieresis" unicode="&#xf6;" horiz-adv-x="1044" 
d="M446 1450v-258h-239v258h239zM840 1450v-258h-240v258h240zM201 88q-119 113 -119 346v199q0 231 119 344q116 110 323 110q204 0 320 -110q119 -113 119 -344v-199q0 -233 -119 -346q-117 -111 -320 -111q-206 0 -323 111zM690 629q0 213 -166 213q-170 0 -170 -213
v-193q0 -213 170 -213q166 0 166 213v193z" />
    <glyph glyph-name="divide" unicode="&#xf7;" horiz-adv-x="1083" 
d="M436 803q-41 44 -41 104q0 61 41 105q43 43 105 43q61 0 104 -43t43 -105q0 -61 -43 -104t-104 -43q-62 0 -105 43zM995 692v-254h-907v254h907zM436 121q-41 44 -41 104q0 61 41 105q43 43 105 43q61 0 104 -43t43 -105q0 -60 -41 -104q-43 -43 -106 -43q-62 0 -105 43z
" />
    <glyph glyph-name="oslash" unicode="&#xf8;" horiz-adv-x="1044" 
d="M862 956q101 -116 101 -323v-199q0 -233 -119 -346q-117 -111 -320 -111q-137 0 -237 50l-62 -97h-151l110 176q-102 117 -102 328v199q0 231 119 344q116 110 323 110q136 0 238 -51l57 92h152zM623 813q-40 29 -99 29q-170 0 -170 -213v-193q0 -35 2 -51zM424 250
q40 -27 100 -27q166 0 166 213v193q0 33 -2 47z" />
    <glyph glyph-name="ugrave" unicode="&#xf9;" horiz-adv-x="1064" 
d="M492 1487l239 -293h-246l-303 293h310zM100 1075h275v-633q0 -113 33 -166q30 -53 124 -53q96 0 125 51q33 50 33 168v633h275v-645q0 -225 -107 -338q-109 -115 -326 -115q-432 0 -432 453v645z" />
    <glyph glyph-name="uacute" unicode="&#xfa;" horiz-adv-x="1064" 
d="M868 1487l-303 -293h-246l240 293h309zM100 1075h275v-633q0 -113 33 -166q30 -53 124 -53q96 0 125 51q33 50 33 168v633h275v-645q0 -225 -107 -338q-109 -115 -326 -115q-432 0 -432 453v645z" />
    <glyph glyph-name="ucircumflex" unicode="&#xfb;" horiz-adv-x="1064" 
d="M629 1501l252 -330h-224l-125 154l-124 -154h-226l252 330h195zM100 1075h275v-633q0 -113 33 -166q30 -53 124 -53q96 0 125 51q33 50 33 168v633h275v-645q0 -225 -107 -338q-109 -115 -326 -115q-432 0 -432 453v645z" />
    <glyph glyph-name="udieresis" unicode="&#xfc;" horiz-adv-x="1064" 
d="M455 1450v-258h-240v258h240zM848 1450v-258h-240v258h240zM100 1075h275v-633q0 -113 33 -166q30 -53 124 -53q96 0 125 51q33 50 33 168v633h275v-645q0 -225 -107 -338q-109 -115 -326 -115q-432 0 -432 453v645z" />
    <glyph glyph-name="yacute" unicode="&#xfd;" horiz-adv-x="987" 
d="M829 1487l-303 -293h-245l239 293h309zM700 1075h283l-408 -1171q-43 -119 -122 -174q-77 -56 -209 -56h-99v248h91q59 0 86 21q28 21 43 73l4 13l-365 1046h291l201 -645z" />
    <glyph glyph-name="thorn" unicode="&#xfe;" horiz-adv-x="1054" 
d="M375 1423v-438q85 102 227 102q165 0 268 -112t103 -336v-211q0 -223 -103 -338q-104 -113 -260 -113q-149 0 -241 95v-402h-269v1753h275zM698 629q0 115 -43 164t-116 49q-76 0 -121 -54t-45 -159v-193q0 -106 45 -160q47 -53 127 -53q153 0 153 213v193z" />
    <glyph glyph-name="ydieresis" unicode="&#xff;" horiz-adv-x="987" 
d="M416 1450v-258h-240v258h240zM809 1450v-258h-240v258h240zM700 1075h283l-408 -1171q-43 -119 -122 -174q-77 -56 -209 -56h-99v248h91q59 0 86 21q28 21 43 73l4 13l-365 1046h291l201 -645z" />
    <glyph glyph-name="dotlessi" unicode="&#x131;" horiz-adv-x="493" 
d="M383 1075v-1085h-272v1085h272z" />
    <glyph glyph-name="OE" unicode="&#x152;" horiz-adv-x="1783" 
d="M1137 840h493v-254h-493v-342h585v-254h-854v55q-123 -72 -278 -72q-224 0 -363 136q-135 138 -135 438v323q0 301 139 437q140 137 361 137q155 0 276 -74v53h854v-254h-585v-329zM848 856q0 179 -57 256q-57 76 -175 76q-122 0 -178 -74q-55 -76 -55 -258v-305
q0 -170 55 -246q57 -72 178 -72q120 0 175 76q57 72 57 242v305z" />
    <glyph glyph-name="oe" unicode="&#x153;" horiz-adv-x="1665" 
d="M1583 446h-620v-18q0 -116 49 -162q49 -49 143 -49q68 0 113 31q39 28 45 80v16h262v-20q0 -157 -115 -252q-118 -95 -315 -95q-195 0 -311 101q-113 -101 -310 -101q-206 0 -323 111q-119 113 -119 346v199q0 231 119 344q116 110 323 110q198 0 310 -100
q118 100 305 100q205 0 323 -124q121 -121 121 -365v-152zM1139 850q-84 0 -131 -47q-45 -51 -45 -162h348v16q0 193 -172 193zM690 436v193q0 213 -166 213q-170 0 -170 -213v-193q0 -213 170 -213q166 0 166 213z" />
    <glyph glyph-name="Scaron" unicode="&#x160;" horiz-adv-x="1122" 
d="M432 1835l125 -154l125 154h223l-252 -330h-194l-252 330h225zM186 94q-133 118 -145 346h272q15 -118 74 -168q57 -45 172 -45q217 0 217 176q0 80 -41 121q-46 43 -139 58l-133 22q-391 65 -391 404q0 198 133 319q132 117 352 117q210 0 338 -113q129 -120 141 -330
h-278q-3 102 -56 152q-51 45 -149 45q-101 0 -152 -45q-49 -46 -49 -125q0 -68 43 -108q44 -41 144 -60l149 -26q373 -68 373 -408q0 -216 -139 -334q-139 -115 -375 -115q-232 0 -361 117z" />
    <glyph glyph-name="scaron" unicode="&#x161;" horiz-adv-x="970" 
d="M360 1487l125 -154l125 154h224l-252 -330h-195l-252 330h225zM178 70q-115 90 -115 245v19h259v-15q0 -53 43 -83q44 -33 120 -33q84 0 125 28q43 24 43 80q0 44 -30 68q-37 25 -113 37l-113 18q-162 27 -239 101q-80 77 -80 213q0 155 115 247t292 92q128 0 215 -40
q93 -41 146 -115q51 -73 51 -164v-23h-256v17q0 50 -39 78q-45 28 -117 28q-70 0 -112 -28q-37 -27 -37 -74q0 -43 29 -66q28 -25 98 -34l125 -19q164 -24 243 -100q84 -78 84 -217q0 -168 -122 -262q-123 -91 -316 -91q-183 0 -299 93z" />
    <glyph glyph-name="Ydieresis" unicode="&#x178;" horiz-adv-x="1107" 
d="M475 1798v-258h-239v258h239zM868 1798v-258h-239v258h239zM698 -10h-288v588l-418 845h315l246 -559l246 559h317l-418 -843v-590z" />
    <glyph glyph-name="Zcaron" unicode="&#x17d;" horiz-adv-x="1034" 
d="M391 1835l125 -154l125 154h223l-252 -330h-194l-252 330h225zM989 -10h-938v248l600 931h-588v254h908v-245l-598 -932h616v-256z" />
    <glyph glyph-name="zcaron" unicode="&#x17e;" horiz-adv-x="931" 
d="M340 1487l125 -154l125 154h223l-252 -330h-194l-252 330h225zM389 223h461v-233h-768v227l461 625h-461v233h768v-227z" />
    <glyph glyph-name="florin" unicode="&#x192;" horiz-adv-x="858" 
d="M78 -70q66 0 94 25q29 23 41 96l86 580h-158v246h195l31 206q27 177 114 258q85 82 254 82h115v-254h-80q-61 0 -90 -26q-32 -26 -41 -90l-27 -176h203v-246h-240l-92 -615q-30 -188 -114 -266q-86 -80 -258 -80h-103v260h70z" />
    <glyph glyph-name="circumflex" unicode="&#x2c6;" horiz-adv-x="1024" 
d="M608 1501l252 -330h-223l-125 154l-125 -154h-225l252 330h194z" />
    <glyph glyph-name="caron" unicode="&#x2c7;" horiz-adv-x="1024" 
d="M387 1487l125 -154l125 154h223l-252 -330h-194l-252 330h225z" />
    <glyph glyph-name="dotaccent" unicode="&#x2d9;" horiz-adv-x="1024" 
d="M651 1434v-224h-278v224h278z" />
    <glyph glyph-name="ring" unicode="&#x2da;" horiz-adv-x="1024" 
d="M350 1235q-63 63 -63 158q0 96 63 159q64 64 158 64t158 -64q63 -63 63 -159q0 -95 -63 -158q-64 -64 -158 -64t-158 64zM569 1329q25 28 25 64q0 37 -25 65q-25 25 -61 25q-37 0 -59 -25q-25 -28 -25 -65q0 -36 25 -64q24 -24 59 -24q37 0 61 24z" />
    <glyph glyph-name="tilde" unicode="&#x2dc;" horiz-adv-x="1024" 
d="M211 1380q55 55 88 72q41 23 88 23q34 0 76 -11q51 -20 74 -34q71 -33 108 -33q40 0 68 14q33 17 98 82v-215q-55 -55 -88 -72q-39 -22 -88 -22q-36 0 -74 10q-46 18 -74 35q-71 33 -108 33q-38 0 -68 -15q-25 -13 -100 -78v211z" />
    <glyph glyph-name="gravecomb" unicode="&#x300;" horiz-adv-x="0" 
d="M-41 1487l240 -293h-246l-303 293h309z" />
    <glyph glyph-name="acutecomb" unicode="&#x301;" horiz-adv-x="0" 
d="M336 1487l-303 -293h-246l240 293h309z" />
    <glyph glyph-name="uni0302" unicode="&#x302;" horiz-adv-x="0" 
d="M96 1501l252 -330h-223l-125 154l-125 -154h-225l252 330h194z" />
    <glyph glyph-name="tildecomb" unicode="&#x303;" horiz-adv-x="0" 
d="M-301 1380q55 55 88 72q41 23 88 23q34 0 76 -11q51 -20 74 -34q71 -33 108 -33q40 0 68 14q33 17 98 82v-215q-55 -55 -88 -72q-39 -22 -88 -22q-36 0 -74 10q-46 18 -74 35q-71 33 -108 33q-38 0 -68 -15q-25 -13 -100 -78v211z" />
    <glyph glyph-name="uni0308" unicode="&#x308;" horiz-adv-x="0" 
d="M-78 1450v-258h-239v258h239zM315 1450v-258h-239v258h239z" />
    <glyph glyph-name="uni030A" unicode="&#x30a;" horiz-adv-x="0" 
d="M-158 1235q-63 63 -63 158q0 96 63 159q64 64 158 64t158 -64q63 -63 63 -159q0 -95 -63 -158q-64 -64 -158 -64t-158 64zM61 1329q25 28 25 64q0 37 -25 65q-25 25 -61 25q-37 0 -59 -25q-25 -28 -25 -65q0 -36 25 -64q24 -24 59 -24q37 0 61 24z" />
    <glyph glyph-name="endash" unicode="&#x2013;" horiz-adv-x="854" 
d="M864 836v-256h-874v256h874z" />
    <glyph glyph-name="emdash" unicode="&#x2014;" horiz-adv-x="1705" 
d="M1716 836v-256h-1726v256h1726z" />
    <glyph glyph-name="quoteleft" unicode="&#x2018;" horiz-adv-x="395" 
d="M68 877v423l260 222v-645h-260z" />
    <glyph glyph-name="quoteright" unicode="&#x2019;" horiz-adv-x="395" 
d="M328 1423v-424l-260 -221v645h260z" />
    <glyph glyph-name="quotesinglbase" unicode="&#x201a;" horiz-adv-x="395" 
d="M328 291v-424l-260 -221v645h260z" />
    <glyph glyph-name="quotedblleft" unicode="&#x201c;" horiz-adv-x="784" 
d="M68 877v423l260 222v-645h-260zM457 877v423l260 222v-645h-260z" />
    <glyph glyph-name="quotedblright" unicode="&#x201d;" horiz-adv-x="784" 
d="M328 1423v-424l-260 -221v645h260zM717 1423v-424l-260 -221v645h260z" />
    <glyph glyph-name="quotedblbase" unicode="&#x201e;" horiz-adv-x="782" 
d="M328 291v-424l-260 -221v645h260zM715 291v-424l-260 -221v645h260z" />
    <glyph glyph-name="dagger" unicode="&#x2020;" horiz-adv-x="1116" 
d="M705 727v-1057h-289v1057h-316v254h316v442h289v-442h311v-254h-311z" />
    <glyph glyph-name="daggerdbl" unicode="&#x2021;" horiz-adv-x="1116" 
d="M705 362h311v-256h-311v-436h-289v436h-316v256h316v379h-316v256h316v426h289v-426h311v-256h-311v-379z" />
    <glyph glyph-name="bullet" unicode="&#x2022;" horiz-adv-x="927" 
d="M242 408q-86 89 -86 223t86 223q89 86 223 86q132 0 221 -86q86 -89 86 -223t-86 -223q-89 -86 -221 -86q-134 0 -223 86z" />
    <glyph glyph-name="ellipsis" unicode="&#x2026;" horiz-adv-x="1583" 
d="M373 301v-311h-305v311h305zM944 301v-311h-305v311h305zM1516 301v-311h-306v311h306z" />
    <glyph glyph-name="perthousand" unicode="&#x2030;" horiz-adv-x="2568" 
d="M141 610q-69 78 -69 236v291q0 147 73 223t213 76q145 0 215 -76q70 -73 70 -223v-291q0 -157 -70 -236q-71 -80 -215 -80q-146 0 -217 80zM1438 1434l-801 -1444h-223l798 1444h226zM401 754q11 29 11 102v254q0 69 -11 102q-10 23 -43 23t-43 -23q-12 -27 -12 -102
v-254q0 -70 10 -100q10 -23 45 -23q37 0 43 21zM1276 57q-70 79 -70 236v291q0 146 74 223q73 76 213 76q145 0 215 -76q70 -73 70 -223v-291q0 -157 -70 -236q-71 -80 -215 -80q-146 0 -217 80zM1993 57q-70 79 -70 236v291q0 146 74 223q73 76 213 76q145 0 215 -76
q69 -72 69 -223v-291q0 -158 -69 -236q-71 -80 -215 -80q-146 0 -217 80zM1536 201q10 27 10 102v254q0 72 -10 102q-10 23 -43 23t-43 -23q-12 -27 -12 -102v-254q0 -70 10 -100q10 -23 45 -23q37 0 43 21zM2253 201q10 27 10 102v254q0 72 -10 102q-10 23 -43 23t-43 -23
q-13 -29 -13 -102v-254q0 -67 11 -100q10 -23 45 -23q37 0 43 21z" />
    <glyph glyph-name="guilsinglleft" unicode="&#x2039;" horiz-adv-x="610" 
d="M510 1030v-297l-191 -192l191 -193v-297l-487 490z" />
    <glyph glyph-name="guilsinglright" unicode="&#x203a;" horiz-adv-x="630" 
d="M293 541l-193 192v297l490 -489l-490 -490v297z" />
    <glyph glyph-name="Euro" unicode="&#x20ac;" horiz-adv-x="1124" 
d="M270 96q-114 129 -114 353v34h-111v187h111v82h-111v186h111v39q0 218 116 340q115 127 332 127q189 0 299 -101q118 -103 127 -286h-248q-24 149 -174 149q-182 0 -182 -231v-37h397l-32 -186h-365v-82h354l-32 -187h-322v-37q0 -118 45 -180q43 -61 139 -61
q75 0 119 35q47 41 62 116h241q-12 -193 -133 -293q-119 -96 -297 -96q-215 0 -332 129z" />
    <glyph glyph-name="trademark" unicode="&#x2122;" horiz-adv-x="1658" 
d="M51 1237v186h641v-186h-217v-641h-207v641h-217zM1362 1423h186v-827h-192v397l-119 -280h-137l-119 276v-393h-195v827h189l194 -456z" />
    <glyph glyph-name="NULL" 
 />
    <glyph glyph-name="t_t" horiz-adv-x="1378" 
d="M1118 324q0 -99 94 -99h91v-235h-132q-151 0 -237 86q-88 85 -88 231v570h-385v-553q0 -99 94 -99h90v-235h-131q-152 0 -238 86q-88 85 -88 231v570h-147v198h147v207l273 94v-301h385v207l272 94v-301h205v-198h-205v-553z" />
    <glyph glyph-name="zero.dnom" horiz-adv-x="716" 
d="M141 55q-69 78 -69 236v291q0 147 73 223t213 76q145 0 215 -76q70 -73 70 -223v-291q0 -157 -70 -236q-71 -80 -215 -80q-146 0 -217 80zM401 199q11 29 11 102v254q0 69 -11 102q-10 23 -43 23t-43 -23q-12 -27 -12 -102v-254q0 -70 10 -100q10 -23 45 -23q37 0 43 21z
" />
    <glyph glyph-name="one.dnom" horiz-adv-x="518" 
d="M49 510v252l148 106h223v-878h-232v618z" />
    <glyph glyph-name="two.dnom" horiz-adv-x="708" 
d="M362 520q39 48 39 90v15q0 31 -14 45q-13 16 -39 16q-24 0 -37 -16q-14 -17 -14 -49v-29h-223v41q0 111 78 180q73 70 206 70q126 0 201 -72q78 -75 78 -176v-23q0 -56 -21 -108q-27 -51 -63 -96l-174 -215h258v-203h-557v178z" />
    <glyph glyph-name="three.dnom" horiz-adv-x="698" 
d="M139 37q-73 64 -73 180v41h210v-31q0 -57 66 -57q30 0 45 18q16 19 16 54v18q0 82 -77 82h-54v195h52q33 0 49 16q16 19 16 51v17q0 65 -53 65q-57 0 -57 -53v-33h-209v31q0 119 73 186q72 66 201 66q125 0 197 -66q71 -65 71 -178v-18q0 -107 -82 -162q45 -25 68 -70
q29 -56 29 -125v-22q0 -121 -80 -195q-78 -72 -199 -72q-135 0 -209 62z" />
    <glyph glyph-name="four.dnom" horiz-adv-x="710" 
d="M614 106v-116h-231v116h-332v195l240 567h233l-235 -559h94v180h231v-180h56v-203h-56z" />
    <glyph glyph-name="zero.numr" horiz-adv-x="716" 
d="M141 610q-69 78 -69 236v291q0 147 73 223t213 76q145 0 215 -76q70 -73 70 -223v-291q0 -157 -70 -236q-71 -80 -215 -80q-146 0 -217 80zM401 754q11 29 11 102v254q0 69 -11 102q-10 23 -43 23t-43 -23q-12 -27 -12 -102v-254q0 -70 10 -100q10 -23 45 -23q37 0 43 21
z" />
    <glyph glyph-name="one.numr" horiz-adv-x="518" 
d="M49 1065v252l148 106h223v-878h-232v618z" />
    <glyph glyph-name="two.numr" horiz-adv-x="708" 
d="M362 1075q39 48 39 90v15q0 31 -14 45q-13 16 -39 16q-24 0 -37 -16q-14 -17 -14 -49v-29h-223v41q0 111 78 180q73 70 206 70q126 0 201 -72q78 -75 78 -176v-23q0 -55 -21 -108q-27 -51 -63 -96l-174 -215h258v-203h-557v178z" />
    <glyph glyph-name="three.numr" horiz-adv-x="698" 
d="M139 592q-73 64 -73 180v41h210v-31q0 -57 66 -57q30 0 45 18q16 19 16 54v18q0 82 -77 82h-54v195h52q33 0 49 16q16 19 16 51v17q0 65 -53 65q-57 0 -57 -53v-33h-209v31q0 119 73 186q72 66 201 66q125 0 197 -66q71 -65 71 -178v-18q0 -107 -82 -162q45 -25 68 -70
q29 -56 29 -125v-22q0 -121 -80 -195q-78 -72 -199 -72q-135 0 -209 62z" />
    <glyph glyph-name="four.numr" horiz-adv-x="710" 
d="M614 662v-117h-231v117h-332v194l240 567h233l-235 -559h94v180h231v-180h56v-202h-56z" />
    <glyph glyph-name="zero.sups" horiz-adv-x="716" 
d="M141 936q-69 78 -69 235v291q0 148 73 224q72 75 213 75q146 0 215 -75q70 -73 70 -224v-291q0 -156 -70 -235q-71 -80 -215 -80q-146 0 -217 80zM401 1079q11 29 11 103v254q0 69 -11 102q-10 23 -43 23t-43 -23q-12 -27 -12 -102v-254q0 -71 10 -101q9 -22 45 -22
q37 0 43 20z" />
    <glyph glyph-name="one.sups" horiz-adv-x="518" 
d="M49 1391v251l148 107h223v-879h-232v619z" />
    <glyph glyph-name="two.sups" horiz-adv-x="708" 
d="M362 1401q39 48 39 90v14q0 31 -14 45q-14 17 -39 17q-23 0 -37 -17t-14 -49v-28h-223v40q0 112 78 181q72 69 206 69q127 0 201 -71q78 -75 78 -176v-23q0 -57 -21 -109q-27 -51 -63 -96l-174 -215h258v-203h-557v179z" />
    <glyph glyph-name="three.sups" horiz-adv-x="698" 
d="M139 918q-73 64 -73 180v41h210v-31q0 -57 66 -57q30 0 45 18q16 19 16 53v19q0 82 -77 82h-54v194h52q32 0 49 17q16 19 16 51v16q0 66 -53 66q-57 0 -57 -54v-32h-209v30q0 120 73 187q71 65 201 65q126 0 197 -65t71 -178v-19q0 -107 -82 -162q45 -25 68 -69
q29 -56 29 -125v-23q0 -120 -80 -194q-78 -72 -199 -72q-135 0 -209 62z" />
    <glyph glyph-name="four.sups" horiz-adv-x="710" 
d="M614 987v-117h-231v117h-332v195l240 567h233l-235 -559h94v180h231v-180h56v-203h-56z" />
    <glyph glyph-name="glyph249" horiz-adv-x="417" 
d="M731 1434l-801 -1444h-223l799 1444h225z" />
    </font>
</defs>
</svg>
