<?xml version="1.0" standalone="no"?>
<!DOCTYPE svg PUBLIC "-//W3C//DTD SVG 1.1//EN" "http://www.w3.org/Graphics/SVG/1.1/DTD/svg11.dtd" >
<svg xmlns="http://www.w3.org/2000/svg" xmlns:xlink="http://www.w3.org/1999/xlink" version="1.1">
<metadata>
Created by FontForge 20170731 at Thu Mar 30 13:44:27 2023
 By Aleksey,,,
Copyright (c) Datto, Inc. All rights reserved.
</metadata>
<defs>
<font id="D-DIN-PRO-Regular" horiz-adv-x="1249" >
  <font-face 
    font-family="D-DIN-PRO"
    font-weight="400"
    font-stretch="normal"
    units-per-em="2048"
    panose-1="2 11 5 4 3 2 2 3 2 4"
    ascent="1702"
    descent="-346"
    x-height="1038"
    cap-height="1413"
    bbox="-276 -344 2284 1823"
    underline-thickness="102"
    underline-position="-307"
    unicode-range="U+0020-FB02"
  />
<missing-glyph horiz-adv-x="1228" 
d="M1020 1413v-1413h-813v1413h813zM950 1343h-674v-1273h674v1273z" />
    <glyph glyph-name="fi" unicode="fi" horiz-adv-x="1148" 
d="M375 1038h217v-110h-217v-928h-142v928h-131v110h131v117q0 117 68 188q64 70 182 70h109v-110h-86q-131 0 -131 -142v-123zM983 1393v-185h-147v185h147zM979 1038v-1038h-139v1038h139z" />
    <glyph glyph-name="fl" unicode="fl" horiz-adv-x="1228" 
d="M375 1038h217v-110h-217v-928h-142v928h-131v110h131v117q0 117 68 188q64 70 182 70h109v-110h-86q-131 0 -131 -142v-123zM889 70q-66 72 -66 202v1141h140v-1132q0 -79 30 -117q30 -37 101 -37h84v-127h-99q-126 0 -190 70z" />
    <glyph glyph-name=".notdef" horiz-adv-x="1228" 
d="M1020 1413v-1413h-813v1413h813zM950 1343h-674v-1273h674v1273z" />
    <glyph glyph-name=".null" horiz-adv-x="0" 
 />
    <glyph glyph-name="nonmarkingreturn" horiz-adv-x="444" 
 />
    <glyph glyph-name="space" unicode=" " horiz-adv-x="444" 
 />
    <glyph glyph-name="exclam" unicode="!" horiz-adv-x="489" 
d="M332 1413l-29 -1012h-115l-28 1012h172zM336 190v-190h-182v190h182z" />
    <glyph glyph-name="quotedbl" unicode="&#x22;" horiz-adv-x="630" 
d="M244 1413v-471h-135v471h135zM522 1413v-471h-135v471h135z" />
    <glyph glyph-name="numbersign" unicode="#" horiz-adv-x="1046" 
d="M762 567h184v-114h-198l-60 -453h-123l60 453h-283l-59 -453h-123l59 453h-168v114h185l40 314h-176v112h191l55 420h121l-55 -420h282l56 420h122l-55 -420h178v-112h-192zM397 881l-41 -314h283l41 314h-283z" />
    <glyph glyph-name="dollar" unicode="$" horiz-adv-x="935" 
d="M756 170q-90 -96 -242 -111v-180h-119v178q-147 15 -231 111t-96 260h141q9 -105 57 -166q47 -59 129 -74v471l-14 3q-142 27 -217 108q-74 77 -74 225q0 150 84 246q85 94 221 109v168h119v-166q130 -15 215 -103q79 -88 94 -252h-141q-15 196 -168 226v-449l35 -6
q141 -26 219 -111q74 -83 74 -235q0 -157 -86 -252zM274 870q39 -50 121 -71v422q-81 -15 -121 -70q-41 -59 -41 -145t41 -136zM653 256q45 57 45 156q0 97 -43 149q-47 53 -141 74v-449q93 12 139 70z" />
    <glyph glyph-name="percent" unicode="%" horiz-adv-x="1699" 
d="M145 623q-59 77 -59 227v285q0 146 64 219q61 73 184 73q128 0 190 -71q60 -75 60 -221v-285q0 -149 -60 -227q-61 -76 -190 -76q-131 0 -189 76zM1296 1413l-764 -1413h-129l764 1413h129zM420 711q22 46 22 145v266q0 96 -22 142q-24 43 -86 43q-63 0 -84 -43
q-25 -45 -25 -142v-266q0 -100 25 -145q20 -45 84 -45q66 0 86 45zM1176 63q-60 78 -60 228v284q0 147 64 220q61 73 184 73q128 0 190 -71q60 -75 60 -222v-284q0 -150 -60 -228q-60 -75 -190 -75q-131 0 -188 75zM1450 152q23 48 23 145v266q0 94 -23 142q-24 43 -86 43
q-63 0 -84 -43q-25 -45 -25 -142v-266q0 -100 25 -145q21 -46 84 -46q65 0 86 46z" />
    <glyph glyph-name="ampersand" unicode="&#x26;" horiz-adv-x="1222" 
d="M1102 0h-70q-55 0 -88 20q-30 15 -70 72l-59 84q-82 -102 -166 -149q-83 -47 -186 -47q-164 0 -252 98q-90 96 -90 256q0 113 65 219q59 95 205 229q-106 156 -137 219q-35 68 -35 138q0 129 84 213q82 82 213 82q129 0 211 -82t82 -209q0 -98 -51 -178
q-48 -76 -189 -201l254 -363l148 197l96 -84l-166 -223l72 -103q40 -55 82 -55h47v-133zM403 1266q-45 -45 -45 -123q0 -47 27 -99q18 -40 109 -172q106 93 143 152q35 56 35 121q0 75 -43 121q-42 45 -113 45t-113 -45zM602 150q63 43 135 137l-270 389q-105 -92 -158 -174
q-49 -79 -49 -162q0 -108 57 -168q54 -63 154 -63q72 0 131 41z" />
    <glyph glyph-name="quotesingle" unicode="'" horiz-adv-x="352" 
d="M244 1413v-471h-135v471h135z" />
    <glyph glyph-name="parenleft" unicode="(" horiz-adv-x="589" 
d="M121 672q0 446 244 844h104q-100 -196 -154 -416q-53 -217 -53 -428q0 -213 53 -430q53 -219 154 -414h-107q-241 399 -241 844z" />
    <glyph glyph-name="parenright" unicode=")" horiz-adv-x="589" 
d="M276 242q54 224 54 430q0 207 -54 428q-53 216 -155 416h104q244 -395 244 -844q0 -444 -242 -844h-106q103 198 155 414z" />
    <glyph glyph-name="asterisk" unicode="*" horiz-adv-x="772" 
d="M164 961l-43 73l180 105l-180 102l43 74l176 -103v201h92v-201l178 103l41 -74l-180 -102l180 -105l-41 -73l-178 102v-213h-92v213z" />
    <glyph glyph-name="plus" unicode="+" horiz-adv-x="1048" 
d="M117 498v135h340v340h135v-340h340v-135h-340v-340h-135v340h-340z" />
    <glyph glyph-name="comma" unicode="," horiz-adv-x="352" 
d="M244 190v-344l-135 -127v471h135z" />
    <glyph glyph-name="hyphen" unicode="-" horiz-adv-x="804" 
d="M684 778v-135h-563v135h563z" />
    <glyph glyph-name="period" unicode="." horiz-adv-x="397" 
d="M289 188v-188h-180v188h180z" />
    <glyph glyph-name="slash" unicode="/" horiz-adv-x="802" 
d="M682 1413l-438 -1433h-123l438 1433h123z" />
    <glyph glyph-name="zero" unicode="0" horiz-adv-x="1009" 
d="M135 989q0 445 369 445q370 0 370 -445v-557q0 -452 -370 -452q-369 0 -369 452v557zM674 195q51 77 51 266v491q0 190 -51 267q-52 79 -170 79q-119 0 -168 -79q-51 -77 -51 -267v-491q0 -189 51 -266q50 -80 168 -80q117 0 170 80z" />
    <glyph glyph-name="one" unicode="1" horiz-adv-x="673" 
d="M102 1059v168l242 186h150v-1413h-148v1241z" />
    <glyph glyph-name="two" unicode="2" horiz-adv-x="958" 
d="M596 801q90 134 90 248v30q0 105 -57 162q-59 59 -154 59q-97 0 -151 -57q-56 -59 -56 -172v-37h-147v45q0 160 98 258q97 97 260 97q109 0 189 -45q79 -44 127 -127q43 -79 43 -179v-34q0 -85 -31 -164q-32 -81 -92 -162l-410 -590h533v-133h-717v121z" />
    <glyph glyph-name="three" unicode="3" horiz-adv-x="1013" 
d="M225 72q-100 87 -100 245v33h149v-26q0 -98 62 -154q57 -57 162 -57q109 0 170 67q61 64 61 178v54q0 117 -63 186q-65 68 -179 68h-73v135h71q103 0 162 65q60 66 60 168v41q0 103 -58 164t-155 61q-100 0 -154 -57q-55 -58 -55 -153v-33h-144v37q0 153 97 247
q96 93 260 93q165 0 260 -95q96 -96 96 -256v-45q0 -102 -49 -178q-48 -74 -129 -112q98 -37 151 -123q52 -88 52 -209v-49q0 -176 -105 -281q-106 -106 -278 -106q-168 0 -271 92z" />
    <glyph glyph-name="four" unicode="4" horiz-adv-x="1021" 
d="M774 276v-276h-149v276h-531v136l424 1001h150l-424 -1001h381v385h149v-385h154v-136h-154z" />
    <glyph glyph-name="five" unicode="5" horiz-adv-x="991" 
d="M231 68q-96 90 -96 239v27h144v-15q0 -99 55 -151q56 -53 158 -53q215 0 215 266v133q0 136 -52 203q-53 65 -161 65q-77 0 -129 -37q-57 -44 -76 -106h-131v774h676v-137h-539v-451q40 43 94 68q61 25 125 25q170 0 256 -103t86 -293v-153q0 -183 -96 -287
q-94 -102 -266 -102q-169 0 -263 88z" />
    <glyph glyph-name="six" unicode="6" horiz-adv-x="1011" 
d="M225 88q-104 107 -104 289v69q0 74 22 148q21 70 62 154l330 665h155l-305 -620q24 18 68 30q44 13 86 13q157 0 256 -105q96 -107 96 -280v-70q0 -127 -49 -215q-55 -92 -137 -137q-88 -49 -199 -49q-176 0 -281 108zM678 184q63 69 63 189v69q0 120 -63 189t-172 69
q-106 0 -170 -67q-64 -70 -64 -189v-69q0 -121 64 -191q62 -71 170 -71q107 0 172 71z" />
    <glyph glyph-name="seven" unicode="7" horiz-adv-x="882" 
d="M801 1278l-461 -1278h-150l467 1278h-575v135h719v-135z" />
    <glyph glyph-name="eight" unicode="8" horiz-adv-x="1048" 
d="M322 29q-88 47 -138 135q-49 88 -49 203v51q0 109 53 198q52 86 144 129q-78 41 -123 115q-45 71 -45 176v41q0 103 45 183q47 81 127 126q85 48 188 48q108 0 193 -48q80 -45 127 -126q43 -82 43 -183v-41q0 -105 -45 -176q-44 -72 -125 -115q93 -46 145 -131
q51 -86 51 -194v-51q0 -117 -49 -205q-53 -90 -139 -135q-88 -49 -203 -49q-112 0 -200 49zM680 872q57 63 57 164v43q0 95 -59 160q-58 61 -154 61q-93 0 -151 -61q-60 -66 -60 -160v-43q0 -100 58 -164q57 -63 153 -63q99 0 156 63zM698 184q66 72 66 185v51
q0 116 -64 186t-176 70q-108 0 -174 -72q-65 -71 -65 -184v-51q0 -114 65 -185t174 -71t174 71z" />
    <glyph glyph-name="nine" unicode="9" horiz-adv-x="1011" 
d="M627 621q-25 -19 -66 -31q-43 -12 -88 -12q-161 0 -254 106q-98 104 -98 279v69q0 129 51 215q51 91 137 139q88 48 197 48q176 0 280 -107q105 -108 105 -291v-69q0 -76 -21 -146q-18 -59 -63 -155l-328 -666h-155zM678 782q61 67 61 187v69q0 123 -61 193
q-63 69 -172 69t-172 -69q-64 -70 -64 -191v-69q0 -119 64 -189q63 -69 172 -69t172 69z" />
    <glyph glyph-name="colon" unicode=":" horiz-adv-x="397" 
d="M289 881v-189h-180v189h180zM289 188v-188h-180v188h180z" />
    <glyph glyph-name="semicolon" unicode=";" horiz-adv-x="397" 
d="M289 881v-189h-180v189h180zM289 190v-344l-135 -127v471h135z" />
    <glyph glyph-name="less" unicode="&#x3c;" horiz-adv-x="1048" 
d="M117 627l815 331v-145l-625 -248l625 -248v-145l-815 334v121z" />
    <glyph glyph-name="equal" unicode="=" horiz-adv-x="1048" 
d="M932 829v-137h-815v137h815zM932 436v-135h-815v135h815z" />
    <glyph glyph-name="greater" unicode="&#x3e;" horiz-adv-x="1048" 
d="M741 565l-624 248v145l815 -331v-121l-815 -334v145z" />
    <glyph glyph-name="question" unicode="?" horiz-adv-x="878" 
d="M352 485q0 75 15 121q14 44 61 109l111 149q52 69 75 123q19 49 19 105q0 97 -53 153q-53 53 -152 53q-200 0 -203 -223h-147q3 169 94 266q90 93 260 93q161 0 256 -95q94 -94 94 -247q0 -75 -24 -136q-24 -62 -80 -139l-117 -164q-35 -51 -47 -84q-12 -35 -12 -86v-118
h-150v120zM518 190v-190h-182v190h182z" />
    <glyph glyph-name="at" unicode="@" horiz-adv-x="1785" 
d="M492 -166q-182 102 -273 275q-98 174 -98 401v139q0 226 98 400q100 174 275 268q178 96 399 96t399 -96q175 -94 275 -268q98 -174 98 -396v-137q0 -198 -86 -301q-84 -100 -223 -100q-87 0 -146 39q-63 39 -92 106q-30 -69 -96 -108q-67 -37 -166 -37q-158 0 -231 98
q-74 95 -74 272v164q0 177 74 277q75 96 227 96q74 0 137 -29q56 -28 92 -84v92h133v-591q0 -87 41 -134q39 -45 103 -45q80 0 121 66q41 65 41 217v137q0 191 -76 334q-78 144 -217 219q-147 78 -334 78q-188 0 -332 -78q-141 -75 -219 -219q-76 -143 -76 -332v-145
q0 -189 76 -332q78 -147 217 -225q142 -80 334 -80q131 0 237 25q102 27 203 79l49 -116q-112 -65 -225 -92q-126 -29 -264 -29q-223 0 -401 96zM1075 653q0 250 -190 250q-193 0 -193 -256v-151q0 -130 45 -195q47 -68 148 -68q190 0 190 252v168z" />
    <glyph glyph-name="A" unicode="A" horiz-adv-x="1181" 
d="M291 340l-119 -340h-158l514 1413h125l514 -1413h-157l-119 340h-600zM590 1204l-256 -737h514z" />
    <glyph glyph-name="B" unicode="B" horiz-adv-x="1257" 
d="M1063 602q59 -89 59 -215q0 -183 -114 -285t-314 -102h-530v1413h518q196 0 309 -96q109 -100 109 -277q0 -109 -58 -194t-159 -119q119 -37 180 -125zM313 788h353q131 0 208 62q76 58 76 182q0 123 -73 187q-73 61 -209 61h-355v-492zM895 201q78 69 78 196
q0 129 -76 193q-77 65 -219 65h-365v-522h363q142 0 219 68z" />
    <glyph glyph-name="C" unicode="C" 
d="M270 115q-135 129 -135 409v367q0 280 135 412q135 129 363 129q140 0 254 -54q111 -54 168 -151q59 -100 59 -228v-6h-149v6q0 139 -88 218t-244 79q-168 0 -258 -96t-90 -315v-369q0 -395 350 -395q153 0 242 80q88 76 88 215v8h145v-8q0 -199 -129 -316
q-128 -116 -348 -116q-229 0 -363 131z" />
    <glyph glyph-name="D" unicode="D" horiz-adv-x="1271" 
d="M647 1413q227 0 359 -129q131 -131 131 -412v-331q0 -282 -131 -410q-131 -131 -359 -131h-483v1413h483zM649 135q336 0 336 397v334q0 214 -86 314q-88 98 -250 98h-334v-1143h334z" />
    <glyph glyph-name="E" unicode="E" horiz-adv-x="1120" 
d="M313 786h607v-135h-607v-516h709v-135h-858v1413h858v-135h-709v-492z" />
    <glyph glyph-name="F" unicode="F" horiz-adv-x="1103" 
d="M313 782h607v-135h-607v-647h-149v1413h858v-135h-709v-496z" />
    <glyph glyph-name="G" unicode="G" 
d="M270 115q-135 129 -135 409v367q0 280 135 412q132 129 359 129q143 0 254 -54q108 -53 168 -149q59 -100 59 -225v-9h-149v9q0 135 -89 215q-89 77 -241 77q-168 0 -258 -96q-88 -98 -88 -315v-369q0 -395 348 -395q163 0 248 88q84 90 84 280v109h-338v129h487v-211
q0 -280 -131 -405q-133 -127 -354 -127q-228 0 -359 131z" />
    <glyph glyph-name="H" unicode="H" horiz-adv-x="1288" 
d="M1124 0h-149v655h-662v-655h-149v1413h149v-622h662v622h149v-1413z" />
    <glyph glyph-name="I" unicode="I" horiz-adv-x="509" 
d="M330 1413v-1413h-150v1413h150z" />
    <glyph glyph-name="J" unicode="J" horiz-adv-x="641" 
d="M182 135q71 0 101 37q28 39 28 119v1122h150v-1141q0 -130 -66 -202q-64 -70 -190 -70h-139v135h116z" />
    <glyph glyph-name="K" unicode="K" horiz-adv-x="1224" 
d="M313 389v-389h-149v1413h149v-823l654 823h178l-447 -551l510 -862h-174l-432 745z" />
    <glyph glyph-name="L" unicode="L" horiz-adv-x="1083" 
d="M313 1413v-1278h705v-135h-854v1413h149z" />
    <glyph glyph-name="M" unicode="M" horiz-adv-x="1542" 
d="M1378 0h-149v1106l-400 -823h-114l-402 823v-1106h-149v1413h149l459 -952l457 952h149v-1413z" />
    <glyph glyph-name="N" unicode="N" horiz-adv-x="1357" 
d="M1194 0h-150l-731 1139v-1139h-149v1413h149l731 -1134v1134h150v-1413z" />
    <glyph glyph-name="O" unicode="O" 
d="M268 115q-133 130 -133 409v367q0 279 133 412q132 129 359 129q224 0 356 -129q131 -131 131 -412v-367q0 -279 -133 -409q-131 -131 -356 -131q-226 0 -357 131zM965 885q0 411 -338 411q-169 0 -256 -96q-86 -100 -86 -315v-369q0 -207 88 -301q85 -94 254 -94
q338 0 338 395v369z" />
    <glyph glyph-name="P" unicode="P" horiz-adv-x="1181" 
d="M997 1305q119 -110 119 -314q0 -192 -119 -299q-120 -108 -325 -108h-359v-584h-149v1413h508q205 0 325 -108zM887 786q80 68 80 205q0 146 -80 217q-79 70 -228 70h-346v-559h346q149 0 228 67z" />
    <glyph glyph-name="Q" unicode="Q" 
d="M1038 -244l-116 -65l-166 305q-61 -12 -131 -12q-226 0 -357 131q-133 130 -133 409v367q0 279 133 412q132 129 359 129q224 0 356 -129q131 -131 131 -412v-367q0 -364 -229 -483zM965 885q0 411 -338 411q-169 0 -256 -96q-86 -100 -86 -315v-369q0 -207 88 -301
q85 -94 254 -94q338 0 338 395v369z" />
    <glyph glyph-name="R" unicode="R" horiz-adv-x="1226" 
d="M313 621v-621h-149v1413h524q199 0 313 -102q113 -104 113 -295q0 -150 -80 -250q-77 -96 -223 -131l334 -635h-172l-320 621h-340zM676 750q138 0 213 69q76 67 76 195q0 130 -74 198q-78 66 -215 66h-363v-528h363z" />
    <glyph glyph-name="S" unicode="S" horiz-adv-x="1118" 
d="M207 92q-121 106 -139 307h147q27 -280 336 -280q162 0 244 67t82 197q0 116 -66 176q-67 61 -199 82l-159 27q-171 27 -265 118q-92 89 -92 250q0 187 125 291q126 105 330 105q186 0 309 -97q120 -99 141 -297h-147q-24 265 -305 265q-145 0 -225 -68q-82 -70 -82 -188
q0 -105 63 -162q64 -61 189 -82l163 -29q177 -30 273 -123q94 -91 94 -260q0 -192 -129 -297q-127 -106 -354 -106q-215 0 -334 104z" />
    <glyph glyph-name="T" unicode="T" horiz-adv-x="987" 
d="M567 1278v-1278h-147v1278h-404v135h955v-135h-404z" />
    <glyph glyph-name="U" unicode="U" horiz-adv-x="1300" 
d="M401 47q-108 57 -174 168q-63 105 -63 246v952h151v-940q0 -160 93 -256q90 -96 243 -96q151 0 244 96q92 95 92 256v940h150v-952q0 -137 -62 -246q-66 -111 -174 -168q-112 -59 -250 -59t-250 59z" />
    <glyph glyph-name="V" unicode="V" horiz-adv-x="1071" 
d="M170 1413l367 -1171l364 1171h156l-461 -1413h-123l-459 1413h156z" />
    <glyph glyph-name="W" unicode="W" horiz-adv-x="1630" 
d="M1262 0h-134l-313 1227l-305 -1227h-133l-363 1413h146l286 -1171l277 1171h190l287 -1171l277 1171h139z" />
    <glyph glyph-name="X" unicode="X" horiz-adv-x="1159" 
d="M53 1413h180l347 -555l346 555h174l-432 -672l477 -741h-180l-390 616l-387 -616h-174l475 735z" />
    <glyph glyph-name="Y" unicode="Y" horiz-adv-x="1021" 
d="M586 0h-150v594l-422 819h162l334 -678l336 678h162l-422 -821v-592z" />
    <glyph glyph-name="Z" unicode="Z" horiz-adv-x="1056" 
d="M983 0h-901v135l725 1143h-698v135h868v-135l-725 -1143h731v-135z" />
    <glyph glyph-name="bracketleft" unicode="[" horiz-adv-x="604" 
d="M483 1516v-136h-176v-1417h176v-135h-319v1688h319z" />
    <glyph glyph-name="backslash" unicode="\" horiz-adv-x="802" 
d="M244 1413l438 -1433h-123l-438 1433h123z" />
    <glyph glyph-name="bracketright" unicode="]" horiz-adv-x="604" 
d="M297 -37v1417h-176v136h319v-1688h-319v135h176z" />
    <glyph glyph-name="asciicircum" unicode="^" horiz-adv-x="1048" 
d="M586 1413l354 -829h-123l-293 698l-291 -698h-122l354 829h121z" />
    <glyph glyph-name="underscore" unicode="_" horiz-adv-x="935" 
d="M936 -111v-102h-936v102h936z" />
    <glyph glyph-name="grave" unicode="`" horiz-adv-x="1024" 
d="M475 1427l203 -256h-129l-246 256h172z" />
    <glyph glyph-name="a" unicode="a" horiz-adv-x="1017" 
d="M768 965q96 -90 96 -258v-707h-137v111q-48 -67 -117 -93q-70 -30 -170 -30q-164 0 -254 78t-90 227q0 139 92 219q90 78 256 78h281v119q0 112 -61 170q-60 57 -175 57q-106 0 -165 -47q-62 -50 -62 -133v-6h-135v10q0 132 96 213q95 80 264 80q183 0 281 -88zM664 164
q61 61 61 188v135h-260q-229 0 -229 -192q0 -195 227 -195q137 0 201 64z" />
    <glyph glyph-name="b" unicode="b" horiz-adv-x="1044" 
d="M293 0h-139v1413h139v-520q46 80 113 119q68 41 157 41q157 0 260 -103q101 -104 101 -323v-213q0 -220 -99 -322q-98 -104 -252 -104q-195 0 -280 149v-137zM784 618q0 308 -239 308q-124 0 -189 -86q-63 -86 -63 -234v-182q0 -138 67 -223q64 -88 193 -88
q231 0 231 309v196z" />
    <glyph glyph-name="c" unicode="c" horiz-adv-x="1030" 
d="M231 90q-110 101 -110 324v213q0 222 110 323q109 103 293 103q177 0 283 -95q102 -94 102 -251v-11h-135v11q0 102 -65 161q-64 58 -179 58q-127 0 -198 -68q-72 -72 -72 -240v-196q0 -171 72 -240q69 -69 196 -69q118 0 181 57q65 59 65 162v10h135v-8
q0 -158 -104 -252t-279 -94q-187 0 -295 102z" />
    <glyph glyph-name="d" unicode="d" horiz-adv-x="1046" 
d="M219 92q-98 101 -98 322v213q0 219 98 323q100 103 254 103q190 0 279 -160v520h141v-1413h-141v137q-40 -72 -111 -110q-68 -39 -170 -39q-154 0 -252 104zM686 199q66 87 66 225v182q0 146 -64 234q-65 86 -188 86q-238 0 -238 -308v-196q0 -309 230 -309q129 0 194 86
z" />
    <glyph glyph-name="e" unicode="e" horiz-adv-x="1030" 
d="M260 430q0 -174 72 -246q71 -71 198 -71q110 0 175 53q61 52 61 147v6h135v-10q0 -146 -100 -233q-101 -88 -281 -88q-183 0 -291 108t-108 338v180q0 224 108 332q107 107 287 107t287 -107q106 -106 106 -332v-122h-649v-62zM330 858q-70 -70 -70 -240v-22h510v37
q0 162 -68 227q-69 66 -186 66q-115 0 -186 -68z" />
    <glyph glyph-name="f" unicode="f" horiz-adv-x="669" 
d="M375 1038h217v-110h-217v-928h-142v928h-131v110h131v117q0 117 68 188q64 70 182 70h109v-110h-86q-131 0 -131 -142v-123z" />
    <glyph glyph-name="g" unicode="g" horiz-adv-x="1046" 
d="M248 -250q-100 74 -109 199h140q9 -67 71 -111q59 -41 158 -41q244 0 244 273v145q-40 -72 -111 -113q-68 -39 -170 -39q-153 0 -252 105q-98 101 -98 324v143q0 220 98 321q100 103 254 103q189 0 279 -158v146h141v-965q0 -191 -100 -297q-103 -109 -285 -109
q-165 0 -260 74zM686 276q66 87 66 226v112q0 146 -64 234q-65 86 -188 86q-238 0 -238 -309v-125q0 -310 230 -310q129 0 194 86z" />
    <glyph glyph-name="h" unicode="h" horiz-adv-x="1069" 
d="M293 1413v-502q96 140 278 140q160 0 254 -97q90 -96 90 -272v-682h-139v662q0 130 -63 196q-65 68 -176 68q-112 0 -177 -68q-67 -70 -67 -196v-662h-139v1413h139z" />
    <glyph glyph-name="i" unicode="i" horiz-adv-x="479" 
d="M313 1393v-185h-147v185h147zM309 1038v-1038h-139v1038h139z" />
    <glyph glyph-name="j" unicode="j" horiz-adv-x="462" 
d="M295 1413v-184h-148v184h148zM23 -184q70 0 100 37q31 39 31 116v1069h139v-1077q0 -131 -66 -203q-63 -69 -190 -69h-98v127h84z" />
    <glyph glyph-name="k" unicode="k" horiz-adv-x="1011" 
d="M293 309v-309h-139v1413h139v-928l452 553h168l-333 -393l393 -645h-170l-316 539z" />
    <glyph glyph-name="l" unicode="l" horiz-adv-x="559" 
d="M219 70q-65 71 -65 202v1141h139v-1132q0 -78 31 -117q30 -37 100 -37h84v-127h-98q-127 0 -191 70z" />
    <glyph glyph-name="m" unicode="m" horiz-adv-x="1689" 
d="M291 1038v-127q47 68 119 105q72 35 161 35q109 0 183 -45q75 -46 116 -129q101 174 316 174q164 0 258 -97q92 -100 92 -272v-682h-139v662q0 128 -62 196q-65 68 -176 68q-113 0 -178 -68q-66 -72 -66 -190v-668h-141v662q0 129 -61 196q-65 68 -176 68
q-112 0 -177 -68q-67 -70 -67 -196v-662h-139v1038h137z" />
    <glyph glyph-name="n" unicode="n" horiz-adv-x="1069" 
d="M291 1038v-127q47 71 119 105q72 35 161 35q165 0 256 -97q88 -98 88 -272v-682h-139v662q0 130 -63 196q-65 68 -176 68q-112 0 -177 -68q-67 -70 -67 -196v-662h-139v1038h137z" />
    <glyph glyph-name="o" unicode="o" horiz-adv-x="1034" 
d="M229 90q-108 102 -108 324v213q0 221 108 323q109 103 291 103q178 0 287 -103q106 -100 106 -323v-213q0 -224 -106 -324q-108 -102 -287 -102q-183 0 -291 102zM707 182q67 67 67 240v196q0 170 -67 240q-71 68 -187 68q-119 0 -190 -68q-70 -70 -70 -240v-196
q0 -173 70 -240q69 -69 190 -69q118 0 187 69z" />
    <glyph glyph-name="p" unicode="p" horiz-adv-x="1044" 
d="M293 1038v-145q42 80 110 119t160 39q157 0 260 -103q101 -101 101 -321v-213q0 -222 -99 -324t-252 -102q-195 0 -280 149v-448h-139v1349h139zM784 616q0 310 -239 310q-124 0 -189 -86q-63 -86 -63 -234v-182q0 -138 67 -223q64 -88 193 -88q231 0 231 309v194z" />
    <glyph glyph-name="q" unicode="q" horiz-adv-x="1046" 
d="M752 137q-85 -149 -281 -149q-153 0 -252 102q-98 101 -98 324v213q0 221 100 321q103 103 260 103q92 0 160 -39q69 -40 111 -119v145h141v-1349h-141v448zM686 199q66 87 66 225v182q0 146 -64 234q-65 86 -188 86q-238 0 -238 -310v-194q0 -309 230 -309q129 0 194 86
z" />
    <glyph glyph-name="r" unicode="r" horiz-adv-x="690" 
d="M291 1038v-139q43 76 115 117q70 37 157 37q39 0 76 -6v-140q-56 17 -107 17q-107 0 -172 -74q-67 -73 -67 -193v-657h-139v1038h137z" />
    <glyph glyph-name="s" unicode="s" horiz-adv-x="946" 
d="M199 70q-103 83 -103 221v8h135v-6q0 -85 68 -135q64 -52 178 -52q115 0 185 48q65 47 65 135q0 78 -45 114q-47 38 -150 56l-129 22q-153 27 -221 90q-69 63 -69 185q0 136 100 217q103 80 260 80q171 0 275 -78q102 -80 102 -207v-12h-135v6q0 83 -64 129
q-65 47 -174 47t-168 -47q-61 -46 -61 -129q0 -68 43 -105q43 -40 137 -55l135 -24q153 -27 228 -93q71 -65 71 -188q0 -149 -106 -227q-107 -82 -285 -82q-171 0 -272 82z" />
    <glyph glyph-name="t" unicode="t" horiz-adv-x="696" 
d="M373 264q0 -141 133 -141h82v-123h-105q-120 0 -184 70q-68 68 -68 188v670h-161v110h161v238l142 65v-303h233v-110h-233v-664z" />
    <glyph glyph-name="u" unicode="u" horiz-adv-x="1069" 
d="M250 90q-96 104 -96 291v657h139v-639q0 -145 55 -215q56 -71 187 -71q132 0 186 69q55 70 55 217v639h139v-657q0 -190 -94 -291q-95 -102 -289 -102q-188 0 -282 102z" />
    <glyph glyph-name="v" unicode="v" horiz-adv-x="899" 
d="M180 1038l271 -833l270 833h149l-358 -1038h-125l-358 1038h151z" />
    <glyph glyph-name="w" unicode="w" horiz-adv-x="1462" 
d="M180 1038l234 -831l258 831h116l259 -831l235 831h152l-316 -1038h-127l-262 838l-260 -838h-125l-315 1038h151z" />
    <glyph glyph-name="x" unicode="x" horiz-adv-x="862" 
d="M430 416l-252 -416h-149l327 535l-307 503h150l235 -385l230 385h149l-311 -495l332 -543h-150z" />
    <glyph glyph-name="y" unicode="y" horiz-adv-x="899" 
d="M471 -113q-38 -106 -100 -151q-65 -47 -172 -47h-62v127h51q74 0 115 30q38 30 62 101l20 63l-356 1028h151l273 -825l272 825h145z" />
    <glyph glyph-name="z" unicode="z" horiz-adv-x="933" 
d="M276 129h537v-129h-692v129l532 780h-532v129h692v-129z" />
    <glyph glyph-name="braceleft" unicode="{" horiz-adv-x="696" 
d="M317 -117q-53 56 -53 170v391q0 88 -33 127q-33 36 -110 39v133q78 3 110 41q33 36 33 125v381q0 114 53 170t156 56h102v-125h-71q-50 0 -72 -25t-22 -80v-366q0 -114 -27 -166q-28 -54 -96 -78q69 -23 96 -76q27 -52 27 -166v-377q0 -55 22 -80q21 -24 72 -24h71v-125
h-102q-104 0 -156 55z" />
    <glyph glyph-name="bar" unicode="|" horiz-adv-x="620" 
d="M379 1516v-1686h-137v1686h137z" />
    <glyph glyph-name="braceright" unicode="}" horiz-adv-x="696" 
d="M193 -47q50 0 71 24q23 26 23 80v377q0 115 26 166q27 52 97 76q-67 24 -95 78t-28 166v366q0 54 -23 80q-22 25 -71 25h-72v125h102q105 0 158 -56q51 -54 51 -170v-381q0 -89 33 -125q32 -38 110 -41v-133q-77 -3 -110 -39q-33 -39 -33 -127v-391q0 -116 -51 -170
q-52 -55 -158 -55h-102v125h72z" />
    <glyph glyph-name="asciitilde" unicode="~" horiz-adv-x="1048" 
d="M594 453q-41 17 -96 53q-41 27 -78 45q-28 14 -66 14q-49 0 -82 -26q-35 -27 -75 -97l-101 62q43 93 111 143q68 47 149 47q52 0 93 -18q33 -15 98 -53q66 -36 80 -43q27 -15 63 -15q46 0 86 29q33 26 74 94l100 -63q-48 -95 -112 -142q-67 -49 -150 -49q-48 0 -94 19z
" />
    <glyph glyph-name="uni00A0" unicode="&#xa0;" horiz-adv-x="444" 
 />
    <glyph glyph-name="exclamdown" unicode="&#xa1;" horiz-adv-x="489" 
d="M338 1038v-192h-184v192h184zM303 637l29 -948h-172l28 948h115z" />
    <glyph glyph-name="cent" unicode="&#xa2;" horiz-adv-x="1030" 
d="M774 707q0 95 -55 153q-55 55 -156 64v-809q100 9 156 65q55 55 55 152v10h135v-8q0 -150 -92 -242q-93 -93 -254 -102v-195h-119v199q-149 21 -235 123q-88 101 -88 297v213q0 196 86 299q85 102 237 123v194h119v-192q159 -9 254 -101q92 -95 92 -243v-11h-135v11z
M309 211q48 -72 135 -90v797q-89 -21 -135 -91q-49 -70 -49 -209v-196q0 -141 49 -211z" />
    <glyph glyph-name="sterling" unicode="&#xa3;" horiz-adv-x="892" 
d="M825 0h-714v127q50 30 71 80q21 49 21 131v256h-135v135h135v352q0 164 84 260q84 93 227 93q139 0 221 -82t82 -230h-147q0 80 -41 127q-42 45 -117 45q-76 0 -117 -47q-41 -50 -41 -143v-375h285v-135h-285v-238q0 -69 -16 -125q-14 -48 -51 -92h538v-139z" />
    <glyph glyph-name="currency" unicode="&#xa4;" horiz-adv-x="1255" 
d="M860 340q-103 -74 -233 -74q-133 0 -236 74l-143 -143l-94 98l141 141q-72 107 -72 234q0 130 74 233l-143 146l94 96l145 -144q104 72 234 72q127 0 231 -72l146 144l96 -96l-144 -144q74 -109 74 -235q0 -131 -74 -234l146 -143l-96 -98zM821 471q78 81 78 199
q0 117 -78 198q-77 80 -194 80q-118 0 -195 -80q-78 -81 -78 -198q0 -118 78 -199q77 -80 195 -80q117 0 194 80z" />
    <glyph glyph-name="yen" unicode="&#xa5;" horiz-adv-x="929" 
d="M100 317v115h291v137h-291v117h252l-332 727h168l279 -665l276 665h166l-329 -727h249v-117h-288v-137h288v-115h-288v-317h-150v317h-291z" />
    <glyph glyph-name="brokenbar" unicode="&#xa6;" horiz-adv-x="620" 
d="M379 1516v-721h-137v721h137zM379 555v-725h-137v725h137z" />
    <glyph glyph-name="section" unicode="&#xa7;" horiz-adv-x="1046" 
d="M274 -260q-84 87 -84 252h142q0 -106 47 -156q46 -49 139 -49q87 0 137 47q47 47 47 133q0 95 -57 146q-54 49 -199 84q-147 35 -213 125q-69 90 -69 241q0 118 53 207q54 88 152 121q-87 44 -123 106q-37 64 -37 162q0 134 88 219q90 84 231 84q160 0 240 -86
q78 -87 78 -235h-141q0 190 -175 190q-82 0 -127 -45q-47 -47 -47 -127q0 -90 56 -143q49 -49 190 -84q147 -35 213 -125q68 -92 68 -244q0 -117 -52 -205t-147 -118q87 -41 127 -105q39 -65 39 -172q0 -139 -90 -223q-93 -84 -240 -84q-162 0 -246 84zM680 389
q55 61 55 174q0 114 -55 178q-56 62 -156 62q-99 0 -155 -62q-58 -64 -58 -178q0 -113 58 -174q57 -63 155 -63q99 0 156 63z" />
    <glyph glyph-name="dieresis" unicode="&#xa8;" horiz-adv-x="1024" 
d="M414 1360v-176h-156v176h156zM764 1360v-176h-156v176h156z" />
    <glyph glyph-name="copyright" unicode="&#xa9;" horiz-adv-x="1681" 
d="M473 72q-158 88 -248 254t-90 370q0 207 90 373q87 162 248 254q162 90 367 90q202 0 368 -90q163 -94 250 -254q88 -163 88 -373q0 -209 -88 -372q-89 -164 -250 -254q-166 -90 -368 -90q-207 0 -367 92zM1151 164q135 78 207 213q72 141 72 319q0 179 -72 320
q-72 135 -207 213q-134 76 -311 76q-179 0 -310 -76q-135 -78 -204 -213q-74 -139 -74 -320q0 -180 74 -319q69 -135 204 -213q131 -76 310 -76q177 0 311 76zM627 379q-82 76 -82 244v157q0 168 82 244t221 76q135 0 211 -70t76 -188v-11h-107v7q0 76 -47 120
q-47 41 -129 41q-93 0 -145 -49q-52 -52 -52 -176v-145q0 -127 52 -176q52 -52 145 -52q83 0 129 43q47 44 47 119v8h107v-10q0 -116 -78 -188q-76 -70 -209 -70q-139 0 -221 76z" />
    <glyph glyph-name="ordfeminine" unicode="&#xaa;" horiz-adv-x="675" 
d="M504 1477q63 -54 63 -164v-432h-127v63q-27 -38 -65 -53q-43 -19 -94 -19q-100 0 -154 54q-55 52 -55 145q0 85 59 135q58 49 158 49h147v64q0 56 -28 84q-32 29 -86 29t-82 -25q-29 -26 -29 -68v-4h-123v4q0 90 64 142q60 51 170 51q118 0 182 -55zM406 1012
q30 30 30 94v57h-127q-110 0 -110 -90q0 -92 108 -92q68 0 99 31z" />
    <glyph glyph-name="guillemotleft" unicode="&#xab;" horiz-adv-x="978" 
d="M451 946v-170l-232 -235l232 -236v-170l-400 406zM825 946v-170l-231 -235l231 -236v-170l-399 406z" />
    <glyph glyph-name="logicalnot" unicode="&#xac;" horiz-adv-x="1048" 
d="M115 541v127h819v-402h-141v275h-678z" />
    <glyph glyph-name="uni00AD" unicode="&#xad;" horiz-adv-x="804" 
d="M684 778v-135h-563v135h563z" />
    <glyph glyph-name="registered" unicode="&#xae;" horiz-adv-x="1099" 
d="M352 678q-87 52 -137 141q-51 86 -51 201t51 201q48 86 137 139q86 51 197 51q113 0 199 -51q87 -52 139 -139q49 -88 49 -201t-49 -201q-54 -90 -139 -141q-86 -51 -199 -51q-111 0 -197 51zM778 784q90 93 90 236q0 93 -41 170q-41 74 -114 117q-74 41 -164 41
q-135 0 -225 -93q-91 -94 -91 -235q0 -144 91 -238q89 -92 225 -92q141 0 229 94zM573 1241q68 0 107 -33q37 -34 37 -96q0 -46 -21 -76q-22 -31 -59 -45l90 -188h-80l-86 180h-82v-180h-73v438h167zM571 1049q74 0 74 63q0 64 -74 64h-92v-127h92z" />
    <glyph glyph-name="macron" unicode="&#xaf;" horiz-adv-x="1024" 
d="M778 1335v-127h-532v127h532z" />
    <glyph glyph-name="degree" unicode="&#xb0;" horiz-adv-x="841" 
d="M217 942q-82 82 -82 205t82 205q79 82 205 82q121 0 203 -82t82 -205t-82 -205t-203 -82q-126 0 -205 82zM551 1014q51 51 51 133q0 84 -51 135q-53 53 -129 53q-78 0 -131 -53q-51 -51 -51 -135q0 -82 51 -133q53 -53 131 -53q76 0 129 53z" />
    <glyph glyph-name="plusminus" unicode="&#xb1;" horiz-adv-x="1048" 
d="M117 571v136h340v340h135v-340h340v-136h-340v-340h-135v340h-340zM932 127v-135h-815v135h815z" />
    <glyph glyph-name="uni00B2" unicode="&#xb2;" horiz-adv-x="657" 
d="M377 1372q27 37 39 68q12 30 12 65v17q0 54 -27 84q-28 28 -75 28q-49 0 -76 -30q-29 -32 -29 -93v-22h-135v31q0 103 68 168q64 61 176 61q110 0 174 -61q65 -62 65 -160v-23q0 -55 -18 -102q-21 -47 -62 -100l-219 -302h301v-120h-479v106z" />
    <glyph glyph-name="uni00B3" unicode="&#xb3;" horiz-adv-x="653" 
d="M143 928q-63 57 -63 159v23h123v-20q0 -51 30 -78q31 -31 84 -31q56 0 86 35q31 36 31 92v27q0 60 -33 96q-35 35 -92 35h-43v114h43q53 0 82 33q29 32 29 84v21q0 56 -27 86t-78 30q-49 0 -77 -28q-29 -29 -29 -78v-21h-125v23q0 103 63 160q65 59 172 59q108 0 173 -59
q63 -60 63 -160v-21q0 -56 -29 -106q-26 -45 -75 -70q54 -21 86 -76q30 -53 30 -124v-25q0 -108 -67 -172q-71 -68 -181 -68t-176 60z" />
    <glyph glyph-name="acute" unicode="&#xb4;" horiz-adv-x="1024" 
d="M721 1427l-246 -256h-129l203 256h172z" />
    <glyph glyph-name="uni00B5" unicode="&#xb5;" horiz-adv-x="1054" 
d="M293 1038v-673q0 -125 61 -189q62 -65 168 -65q103 0 170 67q68 65 68 187v673h141v-1038h-139v123q-44 -71 -111 -105t-153 -34q-132 0 -205 79v-374h-139v1349h139z" />
    <glyph glyph-name="paragraph" unicode="&#xb6;" horiz-adv-x="1255" 
d="M549 557q-175 12 -279 131q-106 118 -106 297q0 119 53 219q54 98 152 154q101 55 239 55h402v-1724h-138v1591h-186v-1591h-137v868z" />
    <glyph glyph-name="periodcentered" unicode="&#xb7;" horiz-adv-x="397" 
d="M289 645v-188h-180v188h180z" />
    <glyph glyph-name="cedilla" unicode="&#xb8;" horiz-adv-x="1024" 
d="M639 25l-109 -332h-145l129 332h125z" />
    <glyph glyph-name="uni00B9" unicode="&#xb9;" horiz-adv-x="454" 
d="M53 1473v151l150 111h141v-854h-141v704z" />
    <glyph glyph-name="ordmasculine" unicode="&#xba;" horiz-adv-x="675" 
d="M152 938q-68 65 -68 203v123q0 137 68 202q69 66 186 66t186 -66q68 -65 68 -202v-123q0 -138 -68 -203q-69 -66 -186 -66t-186 66zM461 1264q0 149 -123 149t-123 -149v-123q0 -150 123 -150t123 150v123z" />
    <glyph glyph-name="guillemotright" unicode="&#xbb;" horiz-adv-x="978" 
d="M385 541l-231 235v170l399 -405l-399 -406v170zM760 541l-234 235v170l402 -405l-402 -406v170z" />
    <glyph glyph-name="onequarter" unicode="&#xbc;" horiz-adv-x="1495" 
d="M53 1151v152l150 110h141v-854h-141v705zM1081 1413l-764 -1413h-129l764 1413h129zM1352 154v-154h-142v154h-321v120l239 580h140l-238 -580h180v201h142v-201h80v-120h-80z" />
    <glyph glyph-name="onehalf" unicode="&#xbd;" horiz-adv-x="1472" 
d="M53 1151v152l150 110h141v-854h-141v705zM1081 1413l-764 -1413h-129l764 1413h129zM1192 492q27 38 39 67q12 30 12 66v16q0 55 -26 84q-29 29 -76 29q-48 0 -76 -31q-29 -32 -29 -92v-23h-135v31q0 103 68 168q64 61 176 61q110 0 174 -61q65 -62 65 -160v-22
q0 -57 -18 -103q-23 -50 -61 -100l-220 -301h301v-121h-479v106z" />
    <glyph glyph-name="threequarters" unicode="&#xbe;" horiz-adv-x="1693" 
d="M143 606q-63 57 -63 160v22h123v-20q0 -51 30 -78q31 -31 84 -31q56 0 86 35q31 36 31 92v27q0 60 -33 96q-35 35 -92 35h-43v115h43q53 0 82 33q29 32 29 84v20q0 56 -27 86q-28 31 -78 31q-48 0 -77 -29t-29 -78v-20h-125v22q0 103 63 160q65 59 172 59q108 0 173 -59
q63 -60 63 -160v-20q0 -57 -29 -107q-25 -43 -75 -69q54 -21 86 -76q30 -53 30 -125v-25q0 -108 -67 -172q-70 -67 -181 -67t-176 59zM1280 1413l-764 -1413h-129l764 1413h129zM1550 154v-154h-141v154h-322v120l240 580h139l-237 -580h180v201h141v-201h80v-120h-80z" />
    <glyph glyph-name="questiondown" unicode="&#xbf;" horiz-adv-x="878" 
d="M545 1038v-190h-183v190h183zM193 -238q-97 97 -97 248q0 76 27 140q23 60 90 145l96 123q44 53 56 90q12 38 12 100v72h149v-74q0 -76 -16 -129q-16 -48 -74 -121l-96 -118q-56 -69 -74 -117q-20 -47 -20 -111q0 -96 55 -151q53 -56 152 -56q197 0 200 224h150
q-3 -173 -94 -267q-89 -92 -260 -92q-162 0 -256 94z" />
    <glyph glyph-name="Agrave" unicode="&#xc0;" horiz-adv-x="1181" 
d="M506 1802l203 -256h-129l-246 256h172zM291 340l-119 -340h-158l514 1413h125l514 -1413h-157l-119 340h-600zM590 1204l-256 -737h514z" />
    <glyph glyph-name="Aacute" unicode="&#xc1;" horiz-adv-x="1181" 
d="M813 1802l-246 -256h-129l203 256h172zM291 340l-119 -340h-158l514 1413h125l514 -1413h-157l-119 340h-600zM590 1204l-256 -737h514z" />
    <glyph glyph-name="Acircumflex" unicode="&#xc2;" horiz-adv-x="1181" 
d="M647 1821l219 -295h-127l-147 194l-150 -194h-127l220 295h112zM291 340l-119 -340h-158l514 1413h125l514 -1413h-157l-119 340h-600zM590 1204l-256 -737h514z" />
    <glyph glyph-name="Atilde" unicode="&#xc3;" horiz-adv-x="1181" 
d="M338 1665q36 42 68 59q36 19 73 19q30 0 60 -10q19 -6 63 -31q37 -22 55 -29q23 -10 52 -10q38 0 65 18q25 14 70 62v-125q-64 -76 -142 -76q-31 0 -61 10q-7 2 -66 33q-1 1 -5 3t-9.5 5t-11.5 6q-3 1 -17.5 8t-21.5 9q-24 4 -35 4q-38 0 -67 -16q-34 -23 -70 -64v125z
M291 340l-119 -340h-158l514 1413h125l514 -1413h-157l-119 340h-600zM590 1204l-256 -737h514z" />
    <glyph glyph-name="Adieresis" unicode="&#xc4;" horiz-adv-x="1181" 
d="M494 1735v-176h-156v176h156zM844 1735v-176h-156v176h156zM291 340l-119 -340h-158l514 1413h125l514 -1413h-157l-119 340h-600zM590 1204l-256 -737h514z" />
    <glyph glyph-name="Aring" unicode="&#xc5;" horiz-adv-x="1181" 
d="M291 340l-119 -340h-158l514 1411q-52 17 -88 68q-34 46 -34 108q0 82 53 135q54 54 133 54t133 -54q53 -53 53 -135q0 -61 -35 -108q-35 -50 -90 -68l514 -1411h-157l-119 340h-600zM516 1509q30 -30 76 -30t76 30t30 78q0 45 -30 80q-31 31 -76 31t-76 -31
q-31 -36 -31 -80q0 -47 31 -78zM590 1204l-256 -737h514z" />
    <glyph glyph-name="AE" unicode="&#xc6;" horiz-adv-x="1773" 
d="M1020 786h551v-135h-551v-516h655v-135h-805v350h-505l-189 -350h-162l768 1413h893v-135h-655v-492zM870 1284l-436 -807h436v807z" />
    <glyph glyph-name="Ccedilla" unicode="&#xc7;" 
d="M965 999q0 139 -88 218t-244 79q-168 0 -258 -96t-90 -315v-369q0 -395 350 -395q153 0 242 80q88 76 88 215v8h145v-8q0 -173 -98 -283q-99 -114 -271 -141l-98 -299h-145l112 291q-218 6 -346 137q-129 129 -129 403v367q0 280 135 412q135 129 363 129q140 0 254 -54
q111 -54 168 -151q59 -100 59 -228v-6h-149v6z" />
    <glyph glyph-name="Egrave" unicode="&#xc8;" horiz-adv-x="1120" 
d="M487 1802l203 -256h-129l-246 256h172zM313 786h607v-135h-607v-516h709v-135h-858v1413h858v-135h-709v-492z" />
    <glyph glyph-name="Eacute" unicode="&#xc9;" horiz-adv-x="1120" 
d="M795 1802l-246 -256h-129l203 256h172zM313 786h607v-135h-607v-516h709v-135h-858v1413h858v-135h-709v-492z" />
    <glyph glyph-name="Ecircumflex" unicode="&#xca;" horiz-adv-x="1120" 
d="M629 1821l219 -295h-127l-148 194l-149 -194h-127l219 295h113zM313 786h607v-135h-607v-516h709v-135h-858v1413h858v-135h-709v-492z" />
    <glyph glyph-name="Edieresis" unicode="&#xcb;" horiz-adv-x="1120" 
d="M475 1735v-176h-156v176h156zM825 1735v-176h-155v176h155zM313 786h607v-135h-607v-516h709v-135h-858v1413h858v-135h-709v-492z" />
    <glyph glyph-name="Igrave" unicode="&#xcc;" horiz-adv-x="509" 
d="M170 1802l203 -256h-129l-246 256h172zM330 1413v-1413h-150v1413h150z" />
    <glyph glyph-name="Iacute" unicode="&#xcd;" horiz-adv-x="509" 
d="M477 1802l-246 -256h-129l203 256h172zM330 1413v-1413h-150v1413h150z" />
    <glyph glyph-name="Icircumflex" unicode="&#xce;" horiz-adv-x="509" 
d="M311 1821l219 -295h-127l-147 194l-150 -194h-126l219 295h112zM330 1413v-1413h-150v1413h150z" />
    <glyph glyph-name="Idieresis" unicode="&#xcf;" horiz-adv-x="509" 
d="M158 1735v-176h-156v176h156zM508 1735v-176h-156v176h156zM330 1413v-1413h-150v1413h150z" />
    <glyph glyph-name="Eth" unicode="&#xd0;" horiz-adv-x="1370" 
d="M1104 1284q131 -131 131 -412v-331q0 -282 -131 -410q-131 -131 -359 -131h-483v647h-184v135h184v631h483q227 0 359 -129zM1083 866q0 214 -86 314q-88 98 -249 98h-334v-496h286v-135h-286v-512h334q335 0 335 397v334z" />
    <glyph glyph-name="Ntilde" unicode="&#xd1;" horiz-adv-x="1357" 
d="M424 1665q36 42 68 59q36 19 73 19q30 0 60 -10q19 -6 63 -31q37 -22 55 -29q23 -10 52 -10q38 0 65 18q25 14 70 62v-125q-64 -76 -142 -76q-31 0 -61 10q-4 1 -65 33q-1 1 -5 3l-10 5l-12 6q-3 1 -17.5 8t-21.5 9q-24 4 -35 4q-38 0 -67 -16q-34 -23 -70 -64v125z
M1194 0h-150l-731 1139v-1139h-149v1413h149l731 -1134v1134h150v-1413z" />
    <glyph glyph-name="Ograve" unicode="&#xd2;" 
d="M539 1802l202 -256h-129l-245 256h172zM268 115q-133 130 -133 409v367q0 279 133 412q132 129 359 129q224 0 356 -129q131 -131 131 -412v-367q0 -279 -133 -409q-131 -131 -356 -131q-226 0 -357 131zM965 885q0 411 -338 411q-169 0 -256 -96q-86 -100 -86 -315v-369
q0 -207 88 -301q85 -94 254 -94q338 0 338 395v369z" />
    <glyph glyph-name="Oacute" unicode="&#xd3;" 
d="M846 1802l-246 -256h-129l203 256h172zM268 115q-133 130 -133 409v367q0 279 133 412q132 129 359 129q224 0 356 -129q131 -131 131 -412v-367q0 -279 -133 -409q-131 -131 -356 -131q-226 0 -357 131zM965 885q0 411 -338 411q-169 0 -256 -96q-86 -100 -86 -315v-369
q0 -207 88 -301q85 -94 254 -94q338 0 338 395v369z" />
    <glyph glyph-name="Ocircumflex" unicode="&#xd4;" 
d="M680 1821l219 -295h-127l-147 194l-150 -194h-127l219 295h113zM268 115q-133 130 -133 409v367q0 279 133 412q132 129 359 129q224 0 356 -129q131 -131 131 -412v-367q0 -279 -133 -409q-131 -131 -356 -131q-226 0 -357 131zM965 885q0 411 -338 411q-169 0 -256 -96
q-86 -100 -86 -315v-369q0 -207 88 -301q85 -94 254 -94q338 0 338 395v369z" />
    <glyph glyph-name="Otilde" unicode="&#xd5;" 
d="M371 1665q37 43 67 59q36 19 74 19q29 0 59 -10q21 -7 64 -31q37 -22 55 -29q23 -10 51 -10q39 0 66 18q25 14 70 62v-125q-64 -76 -142 -76q-31 0 -61 10q-7 2 -66 33q-1 1 -5 3t-9.5 5t-11.5 6q-3 1 -17.5 8t-21.5 9q-24 4 -35 4q-39 0 -68 -16q-32 -21 -69 -64v125z
M268 115q-133 130 -133 409v367q0 279 133 412q132 129 359 129q224 0 356 -129q131 -131 131 -412v-367q0 -279 -133 -409q-131 -131 -356 -131q-226 0 -357 131zM965 885q0 411 -338 411q-169 0 -256 -96q-86 -100 -86 -315v-369q0 -207 88 -301q85 -94 254 -94
q338 0 338 395v369z" />
    <glyph glyph-name="Odieresis" unicode="&#xd6;" 
d="M526 1735v-176h-155v176h155zM877 1735v-176h-156v176h156zM268 115q-133 130 -133 409v367q0 279 133 412q132 129 359 129q224 0 356 -129q131 -131 131 -412v-367q0 -279 -133 -409q-131 -131 -356 -131q-226 0 -357 131zM965 885q0 411 -338 411q-169 0 -256 -96
q-86 -100 -86 -315v-369q0 -207 88 -301q85 -94 254 -94q338 0 338 395v369z" />
    <glyph glyph-name="multiply" unicode="&#xd7;" horiz-adv-x="1048" 
d="M434 567l-252 252l90 90l252 -252l252 252l92 -90l-252 -252l252 -254l-92 -90l-252 252l-252 -252l-90 90z" />
    <glyph glyph-name="Oslash" unicode="&#xd8;" 
d="M1008 1270q106 -132 106 -379v-367q0 -279 -133 -409q-131 -131 -356 -131q-187 0 -308 86l-63 -111h-119l107 184q-107 134 -107 381v367q0 279 133 412q132 129 359 129q184 0 305 -86l63 108h119zM858 1217q-82 79 -231 79q-169 0 -256 -96q-86 -100 -86 -315v-369
q0 -137 41 -227zM391 197q82 -76 236 -76q338 0 338 395v369q0 144 -41 237z" />
    <glyph glyph-name="Ugrave" unicode="&#xd9;" horiz-adv-x="1300" 
d="M563 1802l203 -256h-129l-246 256h172zM401 47q-108 57 -174 168q-63 105 -63 246v952h151v-940q0 -160 93 -256q90 -96 243 -96q151 0 244 96q92 95 92 256v940h150v-952q0 -137 -62 -246q-66 -111 -174 -168q-112 -59 -250 -59t-250 59z" />
    <glyph glyph-name="Uacute" unicode="&#xda;" horiz-adv-x="1300" 
d="M870 1802l-245 -256h-129l202 256h172zM401 47q-108 57 -174 168q-63 105 -63 246v952h151v-940q0 -160 93 -256q90 -96 243 -96q151 0 244 96q92 95 92 256v940h150v-952q0 -137 -62 -246q-66 -111 -174 -168q-112 -59 -250 -59t-250 59z" />
    <glyph glyph-name="Ucircumflex" unicode="&#xdb;" horiz-adv-x="1300" 
d="M705 1821l219 -295h-127l-148 194l-149 -194h-127l219 295h113zM401 47q-108 57 -174 168q-63 105 -63 246v952h151v-940q0 -160 93 -256q90 -96 243 -96q151 0 244 96q92 95 92 256v940h150v-952q0 -137 -62 -246q-66 -111 -174 -168q-112 -59 -250 -59t-250 59z" />
    <glyph glyph-name="Udieresis" unicode="&#xdc;" horiz-adv-x="1300" 
d="M551 1735v-176h-156v176h156zM901 1735v-176h-156v176h156zM401 47q-108 57 -174 168q-63 105 -63 246v952h151v-940q0 -160 93 -256q90 -96 243 -96q151 0 244 96q92 95 92 256v940h150v-952q0 -137 -62 -246q-66 -111 -174 -168q-112 -59 -250 -59t-250 59z" />
    <glyph glyph-name="Yacute" unicode="&#xdd;" horiz-adv-x="1021" 
d="M733 1802l-246 -256h-129l203 256h172zM586 0h-150v594l-422 819h162l334 -678l336 678h162l-422 -821v-592z" />
    <glyph glyph-name="Thorn" unicode="&#xde;" horiz-adv-x="1181" 
d="M977 1047q119 -110 119 -314q0 -192 -119 -299q-120 -108 -326 -108h-338v-326h-149v1413h149v-258h338q206 0 326 -108zM866 528q80 68 80 205q0 146 -80 217q-81 72 -227 72h-326v-561h326q148 0 227 67z" />
    <glyph glyph-name="germandbls" unicode="&#xdf;" horiz-adv-x="1034" 
d="M567 119q96 0 138 33q43 34 55 100q12 67 12 209q0 137 -12 207q-12 68 -58 102q-47 35 -147 35h-43v127h55q101 0 146 45q43 43 43 135q0 96 -56 143q-57 45 -170 45q-123 0 -180 -57t-57 -188v-1055h-139v1036q0 192 88 293q88 98 286 98q182 0 275 -81q94 -82 94 -232
q0 -91 -33 -147q-35 -60 -100 -93q64 -30 98 -79q33 -54 41 -123q10 -85 10 -211q0 -180 -24 -279q-23 -95 -96 -143q-74 -47 -220 -47h-59v127h53z" />
    <glyph glyph-name="agrave" unicode="&#xe0;" horiz-adv-x="1017" 
d="M418 1427l203 -256h-129l-246 256h172zM768 965q96 -90 96 -258v-707h-137v111q-48 -67 -117 -93q-70 -30 -170 -30q-164 0 -254 78t-90 227q0 139 92 219q90 78 256 78h281v119q0 112 -61 170q-60 57 -175 57q-106 0 -165 -47q-62 -50 -62 -133v-6h-135v10q0 132 96 213
q95 80 264 80q183 0 281 -88zM664 164q61 61 61 188v135h-260q-229 0 -229 -192q0 -195 227 -195q137 0 201 64z" />
    <glyph glyph-name="aacute" unicode="&#xe1;" horiz-adv-x="1017" 
d="M725 1427l-246 -256h-129l203 256h172zM768 965q96 -90 96 -258v-707h-137v111q-48 -67 -117 -93q-70 -30 -170 -30q-164 0 -254 78t-90 227q0 139 92 219q90 78 256 78h281v119q0 112 -61 170q-60 57 -175 57q-106 0 -165 -47q-62 -50 -62 -133v-6h-135v10q0 132 96 213
q95 80 264 80q183 0 281 -88zM664 164q61 61 61 188v135h-260q-229 0 -229 -192q0 -195 227 -195q137 0 201 64z" />
    <glyph glyph-name="acircumflex" unicode="&#xe2;" horiz-adv-x="1017" 
d="M559 1446l219 -295h-127l-147 195l-150 -195h-127l219 295h113zM768 965q96 -90 96 -258v-707h-137v111q-48 -67 -117 -93q-70 -30 -170 -30q-164 0 -254 78t-90 227q0 139 92 219q90 78 256 78h281v119q0 112 -61 170q-60 57 -175 57q-106 0 -165 -47q-62 -50 -62 -133
v-6h-135v10q0 132 96 213q95 80 264 80q183 0 281 -88zM664 164q61 61 61 188v135h-260q-229 0 -229 -192q0 -195 227 -195q137 0 201 64z" />
    <glyph glyph-name="atilde" unicode="&#xe3;" horiz-adv-x="1017" 
d="M250 1290q38 45 67 60q34 18 74 18q30 0 60 -10q19 -6 63 -31q37 -22 55 -29q23 -10 52 -10q37 0 65 19q27 15 70 61v-125q-64 -76 -142 -76q-28 0 -61 11q-12 4 -66 32q-1 1 -5 3.5t-9.5 5.5t-11.5 6q-32 13 -39 16q-24 4 -35 4q-39 0 -68 -16q-32 -21 -69 -64v125z
M768 965q96 -90 96 -258v-707h-137v111q-48 -67 -117 -93q-70 -30 -170 -30q-164 0 -254 78t-90 227q0 139 92 219q90 78 256 78h281v119q0 112 -61 170q-60 57 -175 57q-106 0 -165 -47q-62 -50 -62 -133v-6h-135v10q0 132 96 213q95 80 264 80q183 0 281 -88zM664 164
q61 61 61 188v135h-260q-229 0 -229 -192q0 -195 227 -195q137 0 201 64z" />
    <glyph glyph-name="adieresis" unicode="&#xe4;" horiz-adv-x="1017" 
d="M406 1360v-176h-156v176h156zM756 1360v-176h-156v176h156zM768 965q96 -90 96 -258v-707h-137v111q-48 -67 -117 -93q-70 -30 -170 -30q-164 0 -254 78t-90 227q0 139 92 219q90 78 256 78h281v119q0 112 -61 170q-60 57 -175 57q-106 0 -165 -47q-62 -50 -62 -133v-6
h-135v10q0 132 96 213q95 80 264 80q183 0 281 -88zM664 164q61 61 61 188v135h-260q-229 0 -229 -192q0 -195 227 -195q137 0 201 64z" />
    <glyph glyph-name="aring" unicode="&#xe5;" horiz-adv-x="1017" 
d="M371 1198q-54 54 -54 133q0 81 54 135t133 54t133 -54q53 -53 53 -135q0 -80 -53 -133t-133 -53t-133 53zM580 1253q30 30 30 78q0 45 -30 80q-31 31 -76 31t-76 -31q-31 -36 -31 -80q0 -47 31 -78q30 -30 76 -30t76 30zM768 965q96 -90 96 -258v-707h-137v111
q-48 -67 -117 -93q-70 -30 -170 -30q-164 0 -254 78t-90 227q0 139 92 219q90 78 256 78h281v119q0 112 -61 170q-60 57 -175 57q-106 0 -165 -47q-62 -50 -62 -133v-6h-135v10q0 132 96 213q95 80 264 80q183 0 281 -88zM664 164q61 61 61 188v135h-260q-229 0 -229 -192
q0 -195 227 -195q137 0 201 64z" />
    <glyph glyph-name="ae" unicode="&#xe6;" horiz-adv-x="1634" 
d="M864 430q0 -174 72 -246q71 -71 199 -71q109 0 174 53q61 52 61 147v6h135v-10q0 -141 -96 -231q-101 -90 -272 -90q-110 0 -197 41q-89 41 -141 125q-108 -166 -346 -166q-165 0 -260 80q-97 79 -97 225q0 139 92 219q90 78 256 78h281v119q0 112 -61 170
q-60 57 -175 57q-106 0 -165 -47q-62 -50 -62 -133v-6h-135v10q0 132 96 213q95 80 264 80q227 0 322 -138q102 138 311 138q180 0 287 -107q106 -106 106 -332v-122h-649v-62zM934 858q-70 -70 -70 -240v-22h508v37q0 162 -65 227q-69 66 -187 66q-115 0 -186 -68zM465 487
q-229 0 -229 -192q0 -195 227 -195q262 0 262 262v125h-260z" />
    <glyph glyph-name="ccedilla" unicode="&#xe7;" horiz-adv-x="1030" 
d="M774 707q0 102 -65 161q-64 58 -179 58q-127 0 -198 -68q-72 -72 -72 -240v-196q0 -171 72 -240q69 -69 196 -69q118 0 181 57q65 59 65 162v10h135v-8q0 -131 -73 -219q-75 -90 -203 -117l-101 -305h-145l115 295q-177 6 -279 108t-102 318v213q0 222 110 323
q109 103 293 103q177 0 283 -95q102 -94 102 -251v-11h-135v11z" />
    <glyph glyph-name="egrave" unicode="&#xe8;" horiz-adv-x="1030" 
d="M430 1427l203 -256h-129l-246 256h172zM260 430q0 -174 72 -246q71 -71 198 -71q110 0 175 53q61 52 61 147v6h135v-10q0 -146 -100 -233q-101 -88 -281 -88q-183 0 -291 108t-108 338v180q0 224 108 332q107 107 287 107t287 -107q106 -106 106 -332v-122h-649v-62z
M330 858q-70 -70 -70 -240v-22h510v37q0 162 -68 227q-69 66 -186 66q-115 0 -186 -68z" />
    <glyph glyph-name="eacute" unicode="&#xe9;" horiz-adv-x="1030" 
d="M737 1427l-245 -256h-130l203 256h172zM260 430q0 -174 72 -246q71 -71 198 -71q110 0 175 53q61 52 61 147v6h135v-10q0 -146 -100 -233q-101 -88 -281 -88q-183 0 -291 108t-108 338v180q0 224 108 332q107 107 287 107t287 -107q106 -106 106 -332v-122h-649v-62z
M330 858q-70 -70 -70 -240v-22h510v37q0 162 -68 227q-69 66 -186 66q-115 0 -186 -68z" />
    <glyph glyph-name="ecircumflex" unicode="&#xea;" horiz-adv-x="1030" 
d="M571 1446l220 -295h-127l-148 195l-149 -195h-127l219 295h112zM260 430q0 -174 72 -246q71 -71 198 -71q110 0 175 53q61 52 61 147v6h135v-10q0 -146 -100 -233q-101 -88 -281 -88q-183 0 -291 108t-108 338v180q0 224 108 332q107 107 287 107t287 -107
q106 -106 106 -332v-122h-649v-62zM330 858q-70 -70 -70 -240v-22h510v37q0 162 -68 227q-69 66 -186 66q-115 0 -186 -68z" />
    <glyph glyph-name="edieresis" unicode="&#xeb;" horiz-adv-x="1030" 
d="M418 1360v-176h-156v176h156zM768 1360v-176h-156v176h156zM260 430q0 -174 72 -246q71 -71 198 -71q110 0 175 53q61 52 61 147v6h135v-10q0 -146 -100 -233q-101 -88 -281 -88q-183 0 -291 108t-108 338v180q0 224 108 332q107 107 287 107t287 -107q106 -106 106 -332
v-122h-649v-62zM330 858q-70 -70 -70 -240v-22h510v37q0 162 -68 227q-69 66 -186 66q-115 0 -186 -68z" />
    <glyph glyph-name="igrave" unicode="&#xec;" horiz-adv-x="479" 
d="M92 1427l203 -256h-129l-246 256h172zM309 1038v-1038h-139v1038h139z" />
    <glyph glyph-name="iacute" unicode="&#xed;" horiz-adv-x="479" 
d="M524 1427l-245 -256h-129l202 256h172zM309 1038v-1038h-139v1038h139z" />
    <glyph glyph-name="icircumflex" unicode="&#xee;" horiz-adv-x="479" 
d="M295 1446l219 -295h-127l-147 195l-150 -195h-127l219 295h113zM309 1038v-1038h-139v1038h139z" />
    <glyph glyph-name="idieresis" unicode="&#xef;" horiz-adv-x="479" 
d="M141 1360v-176h-155v176h155zM492 1360v-176h-156v176h156zM309 1038v-1038h-139v1038h139z" />
    <glyph glyph-name="eth" unicode="&#xf0;" horiz-adv-x="1015" 
d="M856 788q39 -110 39 -241v-113q0 -226 -100 -338q-102 -114 -289 -114q-185 0 -285 112t-100 330v113q0 208 94 321q91 113 258 113q80 0 143 -29l-139 191l-209 -64l-30 111l168 51l-132 182h168l103 -139l203 61l30 -110l-162 -49l115 -160q86 -119 125 -228zM754 537
q0 305 -244 305q-250 0 -250 -301v-117q0 -309 250 -309q244 0 244 307v115z" />
    <glyph glyph-name="ntilde" unicode="&#xf1;" horiz-adv-x="1069" 
d="M283 1290q38 45 67 60q35 18 74 18q29 0 59 -10q21 -7 64 -31q37 -22 55 -29q23 -10 51 -10q37 0 66 19q25 14 69 61v-125q-64 -76 -141 -76q-28 0 -61 11q-12 4 -66 32q-1 1 -5 3.5t-9.5 5.5t-11.5 6q-31 13 -39 16q-24 4 -35 4q-39 0 -68 -16q-32 -21 -69 -64v125z
M291 1038v-127q47 71 119 105q72 35 161 35q165 0 256 -97q88 -98 88 -272v-682h-139v662q0 130 -63 196q-65 68 -176 68q-112 0 -177 -68q-67 -70 -67 -196v-662h-139v1038h137z" />
    <glyph glyph-name="ograve" unicode="&#xf2;" horiz-adv-x="1034" 
d="M430 1427l203 -256h-129l-246 256h172zM229 90q-108 102 -108 324v213q0 221 108 323q109 103 291 103q178 0 287 -103q106 -100 106 -323v-213q0 -224 -106 -324q-108 -102 -287 -102q-183 0 -291 102zM707 182q67 67 67 240v196q0 170 -67 240q-71 68 -187 68
q-119 0 -190 -68q-70 -70 -70 -240v-196q0 -173 70 -240q69 -69 190 -69q118 0 187 69z" />
    <glyph glyph-name="oacute" unicode="&#xf3;" horiz-adv-x="1034" 
d="M737 1427l-245 -256h-130l203 256h172zM229 90q-108 102 -108 324v213q0 221 108 323q109 103 291 103q178 0 287 -103q106 -100 106 -323v-213q0 -224 -106 -324q-108 -102 -287 -102q-183 0 -291 102zM707 182q67 67 67 240v196q0 170 -67 240q-71 68 -187 68
q-119 0 -190 -68q-70 -70 -70 -240v-196q0 -173 70 -240q69 -69 190 -69q118 0 187 69z" />
    <glyph glyph-name="ocircumflex" unicode="&#xf4;" horiz-adv-x="1034" 
d="M571 1446l220 -295h-127l-148 195l-149 -195h-127l219 295h112zM229 90q-108 102 -108 324v213q0 221 108 323q109 103 291 103q178 0 287 -103q106 -100 106 -323v-213q0 -224 -106 -324q-108 -102 -287 -102q-183 0 -291 102zM707 182q67 67 67 240v196q0 170 -67 240
q-71 68 -187 68q-119 0 -190 -68q-70 -70 -70 -240v-196q0 -173 70 -240q69 -69 190 -69q118 0 187 69z" />
    <glyph glyph-name="otilde" unicode="&#xf5;" horiz-adv-x="1034" 
d="M262 1290q38 44 68 60q34 18 73 18q30 0 60 -10q19 -6 63 -31q36 -21 56 -29q23 -10 51 -10q37 0 65 19q27 15 70 61v-125q-64 -76 -141 -76q-29 0 -62 11q-9 3 -65 32q-1 1 -5 3.5t-10 5.5l-12 6q-31 13 -39 16q-24 4 -35 4q-38 0 -67 -16q-34 -23 -70 -64v125zM229 90
q-108 102 -108 324v213q0 221 108 323q109 103 291 103q178 0 287 -103q106 -100 106 -323v-213q0 -224 -106 -324q-108 -102 -287 -102q-183 0 -291 102zM707 182q67 67 67 240v196q0 170 -67 240q-71 68 -187 68q-119 0 -190 -68q-70 -70 -70 -240v-196q0 -173 70 -240
q69 -69 190 -69q118 0 187 69z" />
    <glyph glyph-name="odieresis" unicode="&#xf6;" horiz-adv-x="1034" 
d="M418 1360v-176h-156v176h156zM768 1360v-176h-156v176h156zM229 90q-108 102 -108 324v213q0 221 108 323q109 103 291 103q178 0 287 -103q106 -100 106 -323v-213q0 -224 -106 -324q-108 -102 -287 -102q-183 0 -291 102zM707 182q67 67 67 240v196q0 170 -67 240
q-71 68 -187 68q-119 0 -190 -68q-70 -70 -70 -240v-196q0 -173 70 -240q69 -69 190 -69q118 0 187 69z" />
    <glyph glyph-name="divide" unicode="&#xf7;" horiz-adv-x="1048" 
d="M455 786q-29 29 -29 70t29 70q28 28 69 28q42 0 70 -28q29 -29 29 -70t-29 -70q-28 -28 -70 -28q-41 0 -69 28zM932 633v-135h-815v135h815zM455 209q-29 29 -29 70q0 40 29 69t69 29q41 0 70 -29t29 -69q0 -41 -29 -70t-70 -29q-40 0 -69 29z" />
    <glyph glyph-name="oslash" unicode="&#xf8;" horiz-adv-x="1034" 
d="M819 936q94 -107 94 -309v-213q0 -224 -106 -324q-108 -102 -287 -102q-147 0 -241 61l-68 -110h-90l98 161q-98 107 -98 314v213q0 221 108 323q109 103 291 103q143 0 240 -66l63 105h90zM690 872q-63 54 -170 54q-119 0 -190 -68q-70 -70 -70 -240v-196
q0 -120 37 -195zM348 164q57 -51 172 -51q118 0 187 69q67 67 67 240v196q0 114 -35 189z" />
    <glyph glyph-name="ugrave" unicode="&#xf9;" horiz-adv-x="1069" 
d="M449 1427l202 -256h-129l-246 256h173zM250 90q-96 104 -96 291v657h139v-639q0 -145 55 -215q56 -71 187 -71q132 0 186 69q55 70 55 217v639h139v-657q0 -190 -94 -291q-95 -102 -289 -102q-188 0 -282 102z" />
    <glyph glyph-name="uacute" unicode="&#xfa;" horiz-adv-x="1069" 
d="M756 1427l-246 -256h-129l203 256h172zM250 90q-96 104 -96 291v657h139v-639q0 -145 55 -215q56 -71 187 -71q132 0 186 69q55 70 55 217v639h139v-657q0 -190 -94 -291q-95 -102 -289 -102q-188 0 -282 102z" />
    <glyph glyph-name="ucircumflex" unicode="&#xfb;" horiz-adv-x="1069" 
d="M590 1446l219 -295h-127l-147 195l-150 -195h-127l219 295h113zM250 90q-96 104 -96 291v657h139v-639q0 -145 55 -215q56 -71 187 -71q132 0 186 69q55 70 55 217v639h139v-657q0 -190 -94 -291q-95 -102 -289 -102q-188 0 -282 102z" />
    <glyph glyph-name="udieresis" unicode="&#xfc;" horiz-adv-x="1069" 
d="M436 1360v-176h-155v176h155zM786 1360v-176h-155v176h155zM250 90q-96 104 -96 291v657h139v-639q0 -145 55 -215q56 -71 187 -71q132 0 186 69q55 70 55 217v639h139v-657q0 -190 -94 -291q-95 -102 -289 -102q-188 0 -282 102z" />
    <glyph glyph-name="yacute" unicode="&#xfd;" horiz-adv-x="899" 
d="M670 1427l-246 -256h-129l203 256h172zM471 -113q-38 -106 -100 -151q-65 -47 -172 -47h-62v127h51q74 0 115 30q38 30 62 101l20 63l-356 1028h151l273 -825l272 825h145z" />
    <glyph glyph-name="thorn" unicode="&#xfe;" horiz-adv-x="1044" 
d="M293 1413v-520q46 80 113 119q68 41 157 41q157 0 260 -103q101 -104 101 -323v-213q0 -220 -99 -322q-98 -104 -252 -104q-195 0 -280 149v-448h-139v1724h139zM784 618q0 308 -239 308q-124 0 -189 -86q-63 -86 -63 -234v-182q0 -138 67 -223q64 -88 193 -88
q231 0 231 309v196z" />
    <glyph glyph-name="ydieresis" unicode="&#xff;" horiz-adv-x="899" 
d="M350 1360v-176h-155v176h155zM700 1360v-176h-155v176h155zM471 -113q-38 -106 -100 -151q-65 -47 -172 -47h-62v127h51q74 0 115 30q38 30 62 101l20 63l-356 1028h151l273 -825l272 825h145z" />
    <glyph glyph-name="dotlessi" unicode="&#x131;" horiz-adv-x="479" 
d="M309 1038v-1038h-139v1038h139z" />
    <glyph glyph-name="OE" unicode="&#x152;" horiz-adv-x="1828" 
d="M1112 938q2 -14 2 -70v-82h512v-135h-512v-104q0 -56 -2 -70v-342h619v-135h-766v100q-125 -116 -342 -116q-225 0 -357 129q-131 128 -131 411v367q0 279 133 412q132 129 357 129q217 0 340 -117v98h766v-135h-619v-340zM965 885q0 411 -338 411q-169 0 -256 -96
q-86 -100 -86 -315v-369q0 -207 88 -301q85 -94 254 -94q338 0 338 395v369z" />
    <glyph glyph-name="oe" unicode="&#x153;" horiz-adv-x="1683" 
d="M913 430q0 -174 72 -246q71 -71 199 -71q109 0 174 53q61 52 61 147v6h135v-10q0 -146 -100 -233q-101 -88 -280 -88q-226 0 -328 153q-94 -153 -326 -153q-183 0 -291 102t-108 324v213q0 221 108 323q109 103 291 103q226 0 326 -154q52 77 135 117q81 37 186 37
q182 0 289 -107t107 -332v-122h-650v-62zM774 618q0 170 -67 240q-71 68 -187 68q-119 0 -190 -68q-70 -70 -70 -240v-196q0 -173 70 -240q69 -69 190 -69q118 0 187 69q67 67 67 240v196zM983 858q-70 -70 -70 -240v-22h508v37q0 160 -67 227q-69 66 -185 66
q-118 0 -186 -68z" />
    <glyph glyph-name="Scaron" unicode="&#x160;" horiz-adv-x="1118" 
d="M410 1823l149 -195l148 195h127l-220 -295h-112l-219 295h127zM207 92q-121 106 -139 307h147q27 -280 336 -280q162 0 244 67t82 197q0 116 -66 176q-67 61 -199 82l-159 27q-171 27 -265 118q-92 89 -92 250q0 187 125 291q126 105 330 105q186 0 309 -97
q120 -99 141 -297h-147q-24 265 -305 265q-145 0 -225 -68q-82 -70 -82 -188q0 -105 63 -162q64 -61 189 -82l163 -29q177 -30 273 -123q94 -91 94 -260q0 -192 -129 -297q-127 -106 -354 -106q-215 0 -334 104z" />
    <glyph glyph-name="scaron" unicode="&#x161;" horiz-adv-x="946" 
d="M324 1448l149 -195l148 195h127l-220 -295h-112l-219 295h127zM199 70q-103 83 -103 221v8h135v-6q0 -85 68 -135q64 -52 178 -52q115 0 185 48q65 47 65 135q0 78 -45 114q-47 38 -150 56l-129 22q-153 27 -221 90q-69 63 -69 185q0 136 100 217q103 80 260 80
q171 0 275 -78q102 -80 102 -207v-12h-135v6q0 83 -64 129q-65 47 -174 47t-168 -47q-61 -46 -61 -129q0 -68 43 -105q43 -40 137 -55l135 -24q153 -27 228 -93q71 -65 71 -188q0 -149 -106 -227q-107 -82 -285 -82q-171 0 -272 82z" />
    <glyph glyph-name="Ydieresis" unicode="&#x178;" horiz-adv-x="1021" 
d="M414 1735v-176h-156v176h156zM764 1735v-176h-156v176h156zM586 0h-150v594l-422 819h162l334 -678l336 678h162l-422 -821v-592z" />
    <glyph glyph-name="Zcaron" unicode="&#x17d;" horiz-adv-x="1056" 
d="M379 1823l149 -195l148 195h127l-219 -295h-113l-219 295h127zM983 0h-901v135l725 1143h-698v135h868v-135l-725 -1143h731v-135z" />
    <glyph glyph-name="zcaron" unicode="&#x17e;" horiz-adv-x="933" 
d="M317 1448l150 -195l147 195h127l-219 -295h-112l-220 295h127zM276 129h537v-129h-692v129l532 780h-532v129h692v-129z" />
    <glyph glyph-name="florin" unicode="&#x192;" horiz-adv-x="831" 
d="M84 -176q80 0 121 35q36 33 51 133l106 719h-174v129h195l41 270q24 162 98 233q70 70 217 70h66v-135h-68q-76 0 -114 -35q-39 -36 -54 -131l-43 -272h215v-129h-235l-107 -715q-23 -165 -96 -238q-69 -69 -219 -69h-57v135h57z" />
    <glyph glyph-name="circumflex" unicode="&#x2c6;" horiz-adv-x="1024" 
d="M567 1446l219 -295h-127l-147 195l-150 -195h-126l219 295h112z" />
    <glyph glyph-name="caron" unicode="&#x2c7;" horiz-adv-x="1024" 
d="M362 1448l150 -195l147 195h127l-219 -295h-112l-219 295h126z" />
    <glyph glyph-name="dotaccent" unicode="&#x2d9;" horiz-adv-x="1024" 
d="M586 1393v-185h-148v185h148z" />
    <glyph glyph-name="ring" unicode="&#x2da;" horiz-adv-x="1024" 
d="M379 1198q-53 53 -53 133q0 82 53 135q54 54 133 54t133 -54q53 -53 53 -135q0 -80 -53 -133t-133 -53t-133 53zM588 1253q30 30 30 78q0 45 -30 80q-31 31 -76 31t-76 -31q-30 -35 -30 -80q0 -48 30 -78t76 -30t76 30z" />
    <glyph glyph-name="tilde" unicode="&#x2dc;" horiz-adv-x="1024" 
d="M258 1290q38 44 68 60q34 18 73 18q30 0 60 -10q19 -6 63 -31q36 -21 56 -29q23 -10 51 -10q37 0 65 19q27 15 70 61v-125q-64 -76 -141 -76q-29 0 -62 11q-9 3 -65 32q-1 1 -5 3.5t-10 5.5l-12 6q-31 13 -39 16q-24 4 -35 4q-38 0 -67 -16q-34 -23 -70 -64v125z" />
    <glyph glyph-name="gravecomb" unicode="&#x300;" horiz-adv-x="0" 
d="M-86 1427l203 -256h-129l-246 256h172z" />
    <glyph glyph-name="acutecomb" unicode="&#x301;" horiz-adv-x="0" 
d="M221 1427l-246 -256h-129l203 256h172z" />
    <glyph glyph-name="uni0302" unicode="&#x302;" horiz-adv-x="0" 
d="M55 1446l219 -295h-127l-147 195l-150 -195h-126l219 295h112z" />
    <glyph glyph-name="tildecomb" unicode="&#x303;" horiz-adv-x="0" 
d="M-254 1290q38 44 68 60q35 18 73 18q30 0 60 -10q19 -6 63 -31q36 -21 56 -29q23 -10 51 -10q37 0 65 19q27 15 70 61v-125q-64 -76 -141 -76q-29 0 -62 11q-9 3 -65 32q-1 1 -5 3.5t-10 5.5l-12 6q-31 13 -39 16q-24 4 -35 4q-38 0 -67 -16q-34 -23 -70 -64v125z" />
    <glyph glyph-name="uni0308" unicode="&#x308;" horiz-adv-x="0" 
d="M-98 1360v-176h-156v176h156zM252 1360v-176h-156v176h156z" />
    <glyph glyph-name="uni030A" unicode="&#x30a;" horiz-adv-x="0" 
d="M-135 1198q-51 51 -51 133q0 84 51 135q54 54 135 54q79 0 133 -54q53 -53 53 -135q0 -80 -53 -133t-133 -53q-82 0 -135 53zM76 1253q30 30 30 78q0 45 -30 80q-31 31 -76 31t-76 -31q-30 -35 -30 -80q0 -48 30 -78t76 -30t76 30z" />
    <glyph glyph-name="endash" unicode="&#x2013;" horiz-adv-x="854" 
d="M854 778v-135h-854v135h854z" />
    <glyph glyph-name="emdash" unicode="&#x2014;" horiz-adv-x="1705" 
d="M1706 778v-135h-1706v135h1706z" />
    <glyph glyph-name="quoteleft" unicode="&#x2018;" horiz-adv-x="352" 
d="M109 1014v344l135 127v-471h-135z" />
    <glyph glyph-name="quoteright" unicode="&#x2019;" horiz-adv-x="352" 
d="M244 1413v-344l-135 -127v471h135z" />
    <glyph glyph-name="quotesinglbase" unicode="&#x201a;" horiz-adv-x="352" 
d="M244 190v-344l-135 -127v471h135z" />
    <glyph glyph-name="quotedblleft" unicode="&#x201c;" horiz-adv-x="630" 
d="M106 1014v344l136 127v-471h-136zM387 1014v344l135 127v-471h-135z" />
    <glyph glyph-name="quotedblright" unicode="&#x201d;" horiz-adv-x="630" 
d="M244 1415v-344l-135 -127v471h135zM524 1415v-344l-135 -127v471h135z" />
    <glyph glyph-name="quotedblbase" unicode="&#x201e;" horiz-adv-x="630" 
d="M244 190v-344l-135 -127v471h135zM522 190v-344l-135 -127v471h135z" />
    <glyph glyph-name="dagger" unicode="&#x2020;" horiz-adv-x="1079" 
d="M614 780v-1091h-149v1091h-311v133h311v500h149v-500h312v-133h-312z" />
    <glyph glyph-name="daggerdbl" unicode="&#x2021;" horiz-adv-x="1079" 
d="M614 322h312v-136h-312v-497h-149v497h-311v136h311v464h-311v136h311v491h149v-491h312v-136h-312v-464z" />
    <glyph glyph-name="bullet" unicode="&#x2022;" horiz-adv-x="964" 
d="M303 453q-72 72 -72 178q0 108 72 180q70 70 178 70q111 0 181 -70q71 -71 71 -180q0 -107 -71 -178q-72 -72 -181 -72q-106 0 -178 72z" />
    <glyph glyph-name="ellipsis" unicode="&#x2026;" horiz-adv-x="1359" 
d="M289 188v-188h-180v188h180zM770 188v-188h-180v188h180zM1251 188v-188h-180v188h180z" />
    <glyph glyph-name="perthousand" unicode="&#x2030;" horiz-adv-x="2369" 
d="M145 623q-59 77 -59 227v285q0 146 64 219q61 73 184 73q128 0 190 -71q60 -75 60 -221v-285q0 -149 -60 -227q-61 -76 -190 -76q-131 0 -189 76zM1296 1413l-764 -1413h-129l764 1413h129zM420 711q22 46 22 145v266q0 96 -22 142q-24 43 -86 43q-63 0 -84 -43
q-25 -45 -25 -142v-266q0 -100 25 -145q20 -45 84 -45q66 0 86 45zM1176 63q-60 78 -60 228v284q0 147 64 220q61 73 184 73q128 0 190 -71q60 -75 60 -222v-284q0 -150 -60 -228q-60 -75 -190 -75q-131 0 -188 75zM1845 63q-59 77 -59 228v284q0 148 63 220q61 73 185 73
q128 0 190 -71q60 -75 60 -222v-284q0 -150 -60 -228q-60 -75 -190 -75q-132 0 -189 75zM1450 152q23 48 23 145v266q0 94 -23 142q-24 43 -86 43q-63 0 -84 -43q-25 -45 -25 -142v-266q0 -100 25 -145q21 -46 84 -46q65 0 86 46zM2120 152q22 46 22 145v266q0 96 -22 142
q-24 43 -86 43q-63 0 -84 -43q-25 -45 -25 -142v-266q0 -100 25 -145q21 -46 84 -46q65 0 86 46z" />
    <glyph glyph-name="guilsinglleft" unicode="&#x2039;" horiz-adv-x="604" 
d="M451 946v-170l-232 -235l232 -236v-170l-400 406z" />
    <glyph glyph-name="guilsinglright" unicode="&#x203a;" horiz-adv-x="630" 
d="M385 541l-231 235v170l399 -405l-399 -406v170z" />
    <glyph glyph-name="Euro" unicode="&#x20ac;" horiz-adv-x="1110" 
d="M299 100q-98 119 -98 322v100h-123v117h123v147h-123v115h123v107q0 191 100 309q99 117 297 117q165 0 260 -86q97 -91 109 -240h-133q-18 91 -74 141q-58 49 -164 49q-134 0 -188 -81q-58 -82 -58 -207v-109h424l-22 -115h-402v-147h373l-21 -117h-352v-104
q0 -134 60 -219q60 -84 190 -84q197 0 234 190h141q-15 -155 -115 -239q-103 -86 -262 -86q-204 0 -299 120z" />
    <glyph glyph-name="trademark" unicode="&#x2122;" horiz-adv-x="1677" 
d="M82 1305v108h590v-108h-234v-699h-121v699h-235zM924 1413l239 -541h6l234 541h110v-807h-114v535h-4l-187 -416h-88l-188 416h-4v-535h-115v807h111z" />
    <glyph glyph-name="NULL" horiz-adv-x="1228" 
 />
    <glyph glyph-name="t_t" horiz-adv-x="1282" 
d="M956 264q0 -141 136 -141h82v-123h-105q-120 0 -184 70q-68 68 -68 188v670h-444v-664q0 -141 133 -141h82v-123h-105q-120 0 -184 70q-68 68 -68 188v670h-161v110h161v238l142 65v-303h444v238l139 65v-303h236v-110h-236v-664z" />
    <glyph glyph-name="zero.dnom" horiz-adv-x="669" 
d="M145 63q-59 77 -59 228v284q0 147 64 220q61 73 184 73q128 0 190 -71q60 -75 60 -222v-284q0 -150 -60 -228q-60 -75 -190 -75q-132 0 -189 75zM420 152q22 46 22 145v266q0 96 -22 142q-24 43 -86 43q-63 0 -84 -43q-25 -45 -25 -142v-266q0 -100 25 -145
q21 -46 84 -46q65 0 86 46z" />
    <glyph glyph-name="one.dnom" horiz-adv-x="454" 
d="M53 592v151l150 111h141v-854h-141v705z" />
    <glyph glyph-name="two.dnom" horiz-adv-x="657" 
d="M377 492q27 38 39 67q12 30 12 66v16q0 54 -27 84q-29 29 -75 29q-48 0 -76 -31q-29 -32 -29 -92v-23h-135v31q0 103 68 168q64 61 176 61q110 0 174 -61q65 -62 65 -160v-22q0 -57 -18 -103q-21 -47 -62 -100l-219 -301h301v-121h-479v106z" />
    <glyph glyph-name="three.dnom" horiz-adv-x="653" 
d="M143 47q-63 57 -63 160v22h123v-20q0 -51 30 -78q31 -31 84 -31q56 0 86 35q31 36 31 92v27q0 60 -33 96q-35 35 -92 35h-43v115h43q54 0 82 32q29 32 29 84v21q0 56 -27 86q-28 31 -78 31q-48 0 -77 -29t-29 -78v-20h-125v22q0 103 63 160q65 59 172 59q108 0 173 -59
q63 -60 63 -160v-20q0 -57 -29 -107q-25 -43 -75 -69q54 -21 86 -76q30 -52 30 -125v-25q0 -108 -67 -172q-70 -67 -181 -67t-176 59z" />
    <glyph glyph-name="four.dnom" horiz-adv-x="679" 
d="M537 154v-154h-142v154h-321v120l239 580h140l-238 -580h180v201h142v-201h79v-120h-79z" />
    <glyph glyph-name="zero.numr" horiz-adv-x="669" 
d="M145 623q-59 77 -59 227v285q0 146 64 219q61 73 184 73q128 0 190 -71q60 -75 60 -221v-285q0 -149 -60 -227q-61 -76 -190 -76q-131 0 -189 76zM420 711q22 46 22 145v266q0 96 -22 142q-24 43 -86 43q-63 0 -84 -43q-25 -45 -25 -142v-266q0 -100 25 -145
q20 -45 84 -45q66 0 86 45z" />
    <glyph glyph-name="one.numr" horiz-adv-x="454" 
d="M53 1151v152l150 110h141v-854h-141v705z" />
    <glyph glyph-name="two.numr" horiz-adv-x="657" 
d="M377 1051q27 38 39 67q12 30 12 66v16q0 54 -27 84q-29 29 -75 29q-48 0 -76 -31q-29 -32 -29 -92v-23h-135v31q0 103 68 168q64 61 176 61q110 0 174 -61q65 -62 65 -160v-22q0 -56 -18 -103q-21 -47 -62 -100l-219 -301h301v-121h-479v107z" />
    <glyph glyph-name="three.numr" horiz-adv-x="653" 
d="M143 606q-63 57 -63 160v22h123v-20q0 -51 30 -78q31 -31 84 -31q56 0 86 35q31 36 31 92v27q0 60 -33 96q-35 35 -92 35h-43v115h43q53 0 82 33q29 32 29 84v20q0 56 -27 86q-28 31 -78 31q-48 0 -77 -29t-29 -78v-20h-125v22q0 103 63 160q65 59 172 59q108 0 173 -59
q63 -60 63 -160v-20q0 -57 -29 -107q-25 -43 -75 -69q54 -21 86 -76q30 -53 30 -125v-25q0 -108 -67 -172q-70 -67 -181 -67t-176 59z" />
    <glyph glyph-name="four.numr" horiz-adv-x="679" 
d="M537 713v-154h-142v154h-321v121l239 579h140l-238 -579h180v200h142v-200h79v-121h-79z" />
    <glyph glyph-name="zero.sups" horiz-adv-x="669" 
d="M145 944q-59 77 -59 227v285q0 146 64 219q62 74 184 74q127 0 190 -72q60 -75 60 -221v-285q0 -149 -60 -227q-61 -76 -190 -76q-131 0 -189 76zM420 1032q22 46 22 146v266q0 95 -22 141q-24 43 -86 43q-63 0 -84 -43q-25 -45 -25 -141v-266q0 -101 25 -146
q20 -45 84 -45q66 0 86 45z" />
    <glyph glyph-name="one.sups" horiz-adv-x="454" 
d="M53 1473v151l150 111h141v-854h-141v704z" />
    <glyph glyph-name="two.sups" horiz-adv-x="657" 
d="M377 1372q27 37 39 68q12 30 12 65v17q0 54 -27 84q-28 28 -75 28q-49 0 -76 -30q-29 -32 -29 -93v-22h-135v31q0 103 68 168q64 61 176 61q110 0 174 -61q65 -62 65 -160v-23q0 -55 -18 -102q-21 -47 -62 -100l-219 -302h301v-120h-479v106z" />
    <glyph glyph-name="three.sups" horiz-adv-x="653" 
d="M143 928q-63 57 -63 159v23h123v-20q0 -51 30 -78q31 -31 84 -31q56 0 86 35q31 36 31 92v27q0 60 -33 96q-35 35 -92 35h-43v114h43q53 0 82 33q29 32 29 84v21q0 56 -27 86t-78 30q-49 0 -77 -28q-29 -29 -29 -78v-21h-125v23q0 103 63 160q65 59 172 59q108 0 173 -59
q63 -60 63 -160v-21q0 -56 -29 -106q-26 -45 -75 -70q54 -21 86 -76q30 -53 30 -124v-25q0 -108 -67 -172q-71 -68 -181 -68t-176 60z" />
    <glyph glyph-name="four.sups" horiz-adv-x="679" 
d="M537 1034v-153h-142v153h-321v121l239 580h140l-238 -580h180v201h142v-201h79v-121h-79z" />
    <glyph glyph-name="glyph249" horiz-adv-x="360" 
d="M637 1413l-764 -1413h-129l764 1413h129z" />
    </font>
</defs>
</svg>
